<svg width="60" height="13" viewBox="0 0 55 13" fill="none" xmlns="http://www.w3.org/2000/svg">
<path d="M3.088 3.328C3.17333 3.24267 3.29067 3.184 3.44 3.152C3.6 3.12 3.74933 3.09333 3.888 3.072C4.19733 3.06133 4.42133 3.12533 4.56 3.264C4.70933 3.40267 4.81067 3.584 4.864 3.808C4.91733 4.02133 4.944 4.256 4.944 4.512C4.95467 4.768 4.976 4.99733 5.008 5.2C5.41333 5.27467 5.80267 5.328 6.176 5.36C6.56 5.38133 6.94933 5.34933 7.344 5.264C7.51467 4.77333 7.57867 4.29333 7.536 3.824C7.49333 3.35467 7.37067 2.92267 7.168 2.528C6.96533 2.12267 6.69333 1.76533 6.352 1.456C6.01067 1.14667 5.62667 0.901333 5.2 0.719999C4.784 0.527999 4.336 0.415999 3.856 0.384C3.376 0.352 2.89067 0.415999 2.4 0.575999C2.25067 0.618666 2.10667 0.671999 1.968 0.735999C1.82933 0.789332 1.70133 0.858666 1.584 0.943999C1.38133 1.12533 1.20533 1.33333 1.056 1.568C0.917333 1.80267 0.8 2.05867 0.704 2.336C0.64 2.496 0.586667 2.672 0.544 2.864C0.512 3.04533 0.506667 3.22667 0.528 3.408C0.517333 4.272 0.506667 5.03467 0.496 5.696C0.496 6.34667 0.496 6.93333 0.496 7.456C0.506667 7.968 0.517333 8.432 0.528 8.848C0.538667 9.264 0.554667 9.664 0.576 10.048C0.618667 10.496 0.757333 10.8693 0.992 11.168C1.23733 11.4667 1.536 11.7013 1.888 11.872C2.24 12.032 2.61867 12.1333 3.024 12.176C3.42933 12.2293 3.824 12.2293 4.208 12.176C4.79467 12.1653 5.31733 12.0213 5.776 11.744C6.24533 11.456 6.624 11.0933 6.912 10.656C7.2 10.2187 7.38667 9.728 7.472 9.184C7.55733 8.62933 7.50933 8.07467 7.328 7.52C7.17867 7.47733 7.008 7.45067 6.816 7.44C6.63467 7.42933 6.448 7.424 6.256 7.424C6.064 7.424 5.872 7.42933 5.68 7.44C5.49867 7.45067 5.33333 7.44533 5.184 7.424C5.13067 7.69067 5.10933 7.96267 5.12 8.24C5.14133 8.50667 5.09333 8.76267 4.976 9.008C4.86933 9.22133 4.70933 9.376 4.496 9.472C4.29333 9.55733 4.07467 9.58933 3.84 9.568C3.53067 9.48267 3.30667 9.296 3.168 9.008C3.04 8.70933 2.96 8.40533 2.928 8.096C2.896 7.72267 2.88 7.28533 2.88 6.784C2.88 6.272 2.88533 5.78133 2.896 5.312C2.90667 4.84267 2.91733 4.43733 2.928 4.096C2.94933 3.75467 2.97067 3.568 2.992 3.536C3.00267 3.51467 3.01333 3.48267 3.024 3.44C3.04533 3.38667 3.06667 3.34933 3.088 3.328ZM8.4365 0.367999C8.3405 1.33867 8.2925 2.30933 8.2925 3.28C8.30317 4.25067 8.3245 5.22133 8.3565 6.192C8.3885 7.16267 8.40983 8.13333 8.4205 9.104C8.44183 10.0747 8.41517 11.04 8.3405 12C8.41517 11.9787 8.5645 11.9733 8.7885 11.984C9.0125 11.9947 9.24717 12 9.4925 12C9.7485 12.0107 9.98317 12.0107 10.1965 12C10.4098 12 10.5432 11.968 10.5965 11.904C10.5752 11.4773 10.5592 10.96 10.5485 10.352C10.5378 9.73333 10.5325 9.072 10.5325 8.368C10.5325 7.664 10.5325 6.93333 10.5325 6.176C10.5432 5.41867 10.5538 4.688 10.5645 3.984C10.5752 3.28 10.5858 2.61867 10.5965 2C10.6072 1.38133 10.6125 0.853333 10.6125 0.415999L8.4365 0.367999ZM18.1334 4.032C17.792 4.01067 17.488 3.99467 17.2214 3.984C16.9654 3.97333 16.7467 3.96267 16.5654 3.952C16.5334 3.952 16.4747 3.952 16.3894 3.952C16.304 3.952 16.2187 3.952 16.1334 3.952C16.048 3.94133 15.968 3.94133 15.8934 3.952C15.8294 3.952 15.7974 3.95733 15.7974 3.968C15.7974 4.096 15.7814 4.224 15.7494 4.352C15.728 4.46933 15.7227 4.61333 15.7334 4.784C15.6587 4.60267 15.568 4.464 15.4614 4.368C15.3547 4.26133 15.232 4.18667 15.0934 4.144C14.9547 4.09067 14.8 4.064 14.6294 4.064C14.4694 4.05333 14.2934 4.048 14.1014 4.048C13.728 4.05867 13.376 4.16 13.0454 4.352C12.7147 4.53333 12.4267 4.78933 12.1814 5.12C11.9467 5.44 11.76 5.824 11.6214 6.272C11.4827 6.72 11.4134 7.21067 11.4134 7.744C11.4134 8.17067 11.456 8.63467 11.5414 9.136C11.6374 9.63733 11.7814 10.1013 11.9734 10.528C12.1654 10.9547 12.4054 11.312 12.6934 11.6C12.992 11.888 13.3494 12.032 13.7654 12.032C14.1387 12.032 14.5174 11.9413 14.9014 11.76C15.296 11.5787 15.6214 11.36 15.8774 11.104C15.8774 11.2107 15.8667 11.3013 15.8454 11.376C15.824 11.4507 15.8134 11.5467 15.8134 11.664C15.8134 11.7493 15.824 11.824 15.8454 11.888C15.8774 11.952 15.9307 11.9947 16.0054 12.016C16.1227 12.016 16.2347 12.0107 16.3414 12C16.4587 11.9787 16.576 11.968 16.6934 11.968C16.864 11.968 17.0347 11.9787 17.2054 12C17.3867 12.0107 17.5627 12.016 17.7334 12.016H17.9254C18.0534 11.9947 18.1174 11.9147 18.1174 11.776C18.128 11.6373 18.1334 11.4987 18.1334 11.36C18.208 10.2187 18.224 9.09333 18.1814 7.984C18.1387 6.864 18.1334 5.728 18.1654 4.576V4.416C18.1654 4.352 18.16 4.288 18.1494 4.224C18.1494 4.16 18.144 4.096 18.1334 4.032ZM13.4774 7.216C13.5307 6.94933 13.68 6.71467 13.9254 6.512C14.1814 6.29867 14.528 6.192 14.9654 6.192C15.1894 6.192 15.3547 6.208 15.4614 6.24C15.5787 6.272 15.6587 6.34667 15.7014 6.464C15.7547 6.58133 15.7814 6.752 15.7814 6.976C15.792 7.18933 15.7974 7.48267 15.7974 7.856C15.7974 8.15467 15.792 8.42667 15.7814 8.672C15.7814 8.90667 15.7494 9.10933 15.6854 9.28C15.632 9.44 15.536 9.568 15.3974 9.664C15.2694 9.74933 15.072 9.792 14.8054 9.792C14.3574 9.792 14.0054 9.62667 13.7494 9.296C13.504 8.95467 13.3814 8.544 13.3814 8.064C13.3814 7.92533 13.3867 7.78667 13.3974 7.648C13.408 7.49867 13.4347 7.35467 13.4774 7.216ZM25.6948 6.464C25.6948 5.888 25.5881 5.37067 25.3748 4.912C25.1614 4.44267 24.8041 4.10133 24.3028 3.888C24.0254 3.824 23.7214 3.776 23.3908 3.744C23.0601 3.70133 22.7294 3.68 22.3988 3.68C22.0681 3.68 21.7534 3.696 21.4548 3.728C21.1668 3.76 20.9214 3.80267 20.7188 3.856C20.1961 3.99467 19.7908 4.26133 19.5028 4.656C19.2254 5.05067 19.0761 5.48267 19.0548 5.952C19.0441 6.41067 19.1721 6.85867 19.4388 7.296C19.7161 7.72267 20.1534 8.03733 20.7508 8.24C21.0494 8.368 21.3534 8.45867 21.6628 8.512C21.9721 8.56533 22.2494 8.62933 22.4948 8.704C22.7401 8.768 22.9374 8.864 23.0868 8.992C23.2361 9.12 23.2948 9.312 23.2628 9.568C23.2734 9.87733 23.1774 10.0907 22.9748 10.208C22.7721 10.3253 22.5481 10.3733 22.3028 10.352C22.0574 10.32 21.8228 10.2293 21.5988 10.08C21.3854 9.92 21.2734 9.71733 21.2628 9.472C20.9321 9.472 20.5428 9.46667 20.0948 9.456C19.6468 9.43467 19.2468 9.44533 18.8948 9.488V9.52V9.568C18.8948 9.99467 18.9801 10.3787 19.1508 10.72C19.3321 11.0613 19.5774 11.3493 19.8868 11.584C20.2068 11.8187 20.5854 11.9947 21.0228 12.112C21.4601 12.2293 21.9508 12.2773 22.4948 12.256C23.1134 12.2667 23.6841 12.16 24.2068 11.936C24.7294 11.712 25.1134 11.3387 25.3588 10.816C25.5614 10.2293 25.6361 9.73867 25.5828 9.344C25.5294 8.93867 25.3854 8.544 25.1508 8.16C24.9054 7.84 24.5214 7.61067 23.9988 7.472C23.4761 7.32267 22.9161 7.20533 22.3188 7.12C22.0734 7.03467 21.8868 6.90667 21.7588 6.736C21.6308 6.56533 21.5668 6.39467 21.5668 6.224C21.5668 6.05333 21.6254 5.89867 21.7428 5.76C21.8708 5.61067 22.0574 5.51467 22.3028 5.472C22.4414 5.46133 22.5801 5.48267 22.7188 5.536C22.8681 5.57867 22.9961 5.648 23.1028 5.744C23.2201 5.84 23.3054 5.952 23.3588 6.08C23.4228 6.208 23.4388 6.336 23.4068 6.464C23.7694 6.53867 24.1534 6.57067 24.5588 6.56C24.9748 6.54933 25.3534 6.51733 25.6948 6.464ZM32.8979 6.464C32.8979 5.888 32.7912 5.37067 32.5779 4.912C32.3645 4.44267 32.0072 4.10133 31.5059 3.888C31.2285 3.824 30.9245 3.776 30.5939 3.744C30.2632 3.70133 29.9325 3.68 29.6019 3.68C29.2712 3.68 28.9565 3.696 28.6579 3.728C28.3699 3.76 28.1245 3.80267 27.9219 3.856C27.3992 3.99467 26.9939 4.26133 26.7059 4.656C26.4285 5.05067 26.2792 5.48267 26.2579 5.952C26.2472 6.41067 26.3752 6.85867 26.6419 7.296C26.9192 7.72267 27.3565 8.03733 27.9539 8.24C28.2525 8.368 28.5565 8.45867 28.8659 8.512C29.1752 8.56533 29.4525 8.62933 29.6979 8.704C29.9432 8.768 30.1405 8.864 30.2899 8.992C30.4392 9.12 30.4979 9.312 30.4659 9.568C30.4765 9.87733 30.3805 10.0907 30.1779 10.208C29.9752 10.3253 29.7512 10.3733 29.5059 10.352C29.2605 10.32 29.0259 10.2293 28.8019 10.08C28.5885 9.92 28.4765 9.71733 28.4659 9.472C28.1352 9.472 27.7459 9.46667 27.2979 9.456C26.8499 9.43467 26.4499 9.44533 26.0979 9.488V9.52V9.568C26.0979 9.99467 26.1832 10.3787 26.3539 10.72C26.5352 11.0613 26.7805 11.3493 27.0899 11.584C27.4099 11.8187 27.7885 11.9947 28.2259 12.112C28.6632 12.2293 29.1539 12.2773 29.6979 12.256C30.3165 12.2667 30.8872 12.16 31.4099 11.936C31.9325 11.712 32.3165 11.3387 32.5619 10.816C32.7645 10.2293 32.8392 9.73867 32.7859 9.344C32.7325 8.93867 32.5885 8.544 32.3539 8.16C32.1085 7.84 31.7245 7.61067 31.2019 7.472C30.6792 7.32267 30.1192 7.20533 29.5219 7.12C29.2765 7.03467 29.0899 6.90667 28.9619 6.736C28.8339 6.56533 28.7699 6.39467 28.7699 6.224C28.7699 6.05333 28.8285 5.89867 28.9459 5.76C29.0739 5.61067 29.2605 5.51467 29.5059 5.472C29.6445 5.46133 29.7832 5.48267 29.9219 5.536C30.0712 5.57867 30.1992 5.648 30.3059 5.744C30.4232 5.84 30.5085 5.952 30.5619 6.08C30.6259 6.208 30.6419 6.336 30.6099 6.464C30.9725 6.53867 31.3565 6.57067 31.7619 6.56C32.1779 6.54933 32.5565 6.51733 32.8979 6.464ZM40.869 4.144C40.837 3.536 40.6983 3.01867 40.453 2.592C40.2077 2.16533 39.893 1.81333 39.509 1.536C39.1357 1.248 38.7037 1.03467 38.213 0.896C37.7223 0.746667 37.2157 0.650667 36.693 0.608C36.181 0.565333 35.6637 0.570666 35.141 0.624C34.629 0.677333 34.1543 0.762666 33.717 0.879999C33.749 1.76533 33.765 2.69333 33.765 3.664C33.7757 4.63467 33.781 5.6 33.781 6.56C33.781 7.52 33.781 8.45867 33.781 9.376C33.781 10.2827 33.797 11.1253 33.829 11.904C34.0103 11.9253 34.2237 11.9413 34.469 11.952C34.7143 11.9627 34.9597 11.968 35.205 11.968C35.461 11.9573 35.701 11.9467 35.925 11.936C36.1597 11.9147 36.3517 11.8827 36.501 11.84C36.5117 11.84 36.517 11.84 36.517 11.84C36.5277 11.8293 36.5383 11.824 36.549 11.824V11.808C36.5277 11.0293 36.5117 10.4107 36.501 9.952C36.501 9.49333 36.501 9.13067 36.501 8.864C36.501 8.58667 36.501 8.37867 36.501 8.24C36.501 8.09067 36.4957 7.94133 36.485 7.792C36.997 7.87733 37.4983 7.856 37.989 7.728C38.4797 7.58933 38.9277 7.37067 39.333 7.072C39.7383 6.77333 40.0743 6.41067 40.341 5.984C40.6183 5.55733 40.789 5.088 40.853 4.576C40.8637 4.512 40.869 4.448 40.869 4.384C40.869 4.30933 40.869 4.23467 40.869 4.16V4.144ZM38.069 3.472C38.2077 3.55733 38.3143 3.664 38.389 3.792C38.4743 3.92 38.5277 4.05867 38.549 4.208C38.581 4.35733 38.5757 4.50667 38.533 4.656C38.501 4.80533 38.4423 4.93867 38.357 5.056C38.229 5.184 38.0743 5.28 37.893 5.344C37.7223 5.39733 37.541 5.43467 37.349 5.456C37.1677 5.47733 36.981 5.49333 36.789 5.504C36.597 5.504 36.4157 5.50933 36.245 5.52H36.197C36.1437 5.36 36.1063 5.184 36.085 4.992C36.0743 4.78933 36.0637 4.58133 36.053 4.368C36.053 4.15467 36.053 3.94133 36.053 3.728C36.0637 3.51467 36.0637 3.312 36.053 3.12C36.0637 3.10933 36.0797 3.104 36.101 3.104C36.4423 3.01867 36.789 3.008 37.141 3.072C37.493 3.12533 37.8023 3.25867 38.069 3.472ZM43.4023 7.984C43.5089 8.00533 43.6796 8.02133 43.9143 8.032C44.1489 8.04267 44.4103 8.048 44.6983 8.048C44.9969 8.048 45.3063 8.04267 45.6263 8.032C45.9463 8.02133 46.2449 8.00533 46.5223 7.984C46.8103 7.96267 47.0556 7.94133 47.2583 7.92C47.4716 7.89867 47.6156 7.87733 47.6903 7.856C47.7223 7.408 47.7223 6.96533 47.6903 6.528C47.6583 6.09067 47.5623 5.69067 47.4023 5.328C47.2529 4.96533 47.0289 4.656 46.7303 4.4C46.4316 4.144 46.0369 3.97333 45.5463 3.888C45.1623 3.792 44.7676 3.74933 44.3623 3.76C43.9569 3.77067 43.5729 3.83467 43.2103 3.952C42.8476 4.05867 42.5223 4.224 42.2343 4.448C41.9463 4.66133 41.7329 4.92267 41.5943 5.232C41.4663 5.584 41.3809 5.94667 41.3383 6.32C41.3063 6.68267 41.2743 7.06133 41.2423 7.456C41.2209 7.89333 41.2316 8.33067 41.2743 8.768C41.3169 9.20533 41.3969 9.62133 41.5143 10.016C41.6316 10.4 41.7863 10.7573 41.9783 11.088C42.1703 11.408 42.4103 11.6693 42.6983 11.872C42.9543 12.0213 43.2316 12.1173 43.5303 12.16C43.8289 12.16 44.1543 12.1707 44.5063 12.192C44.8689 12.2133 45.2209 12.2133 45.5623 12.192C45.9036 12.1707 46.2183 12.1067 46.5063 12C46.7943 11.8933 47.0289 11.712 47.2103 11.456C47.2849 11.392 47.3436 11.28 47.3863 11.12C47.4396 10.9493 47.4823 10.752 47.5143 10.528C47.5463 10.2933 47.5729 10.0427 47.5943 9.776C47.6156 9.50933 47.6369 9.23733 47.6583 8.96C47.5409 8.928 47.3916 8.912 47.2103 8.912C47.0289 8.90133 46.8369 8.90133 46.6343 8.912C46.4423 8.92267 46.2556 8.93333 46.0743 8.944C45.8929 8.944 45.7489 8.93867 45.6423 8.928C45.6636 9.36533 45.5943 9.696 45.4343 9.92C45.2849 10.1333 45.0983 10.2613 44.8743 10.304C44.6503 10.3467 44.4209 10.3093 44.1863 10.192C43.9516 10.0747 43.7703 9.89333 43.6423 9.648C43.5249 9.456 43.4556 9.25867 43.4343 9.056C43.4236 8.85333 43.4129 8.592 43.4023 8.272V7.984ZM45.3383 5.504C45.5303 5.6 45.6796 5.744 45.7863 5.936C45.9036 6.128 45.9623 6.33067 45.9623 6.544C45.9623 6.62933 45.9623 6.688 45.9623 6.72C45.9623 6.74133 45.9303 6.75733 45.8663 6.768C45.8129 6.768 45.7169 6.76267 45.5783 6.752C45.4396 6.74133 45.2316 6.736 44.9543 6.736C44.5489 6.736 44.2396 6.74133 44.0263 6.752C43.8236 6.752 43.6743 6.74667 43.5783 6.736C43.4823 6.71467 43.4289 6.68267 43.4183 6.64C43.4183 6.58667 43.4289 6.50133 43.4503 6.384C43.4716 6.24533 43.5036 6.112 43.5463 5.984C43.5996 5.856 43.6743 5.744 43.7703 5.648C43.8663 5.552 43.9943 5.47733 44.1543 5.424C44.3143 5.37067 44.5223 5.344 44.7783 5.344C44.8956 5.344 44.9969 5.36 45.0823 5.392C45.1676 5.41333 45.2529 5.45067 45.3383 5.504ZM51.3931 1.056C51.2118 1.07733 51.0305 1.08267 50.8491 1.072C50.6678 1.06133 50.4865 1.05067 50.3051 1.04C50.1238 1.01867 49.9478 1.00267 49.7771 0.992C49.6171 0.981333 49.4678 0.986666 49.3291 1.008C49.3078 1.21067 49.2918 1.44 49.2811 1.696C49.2811 1.952 49.2811 2.21867 49.2811 2.496C49.2811 2.77333 49.2865 3.05067 49.2971 3.328C49.3078 3.59467 49.3131 3.84533 49.3131 4.08C49.1425 4.08 48.9611 4.08 48.7691 4.08C48.5878 4.08 48.3905 4.07467 48.1771 4.064L48.1291 6.016C48.3531 6.016 48.5558 6.016 48.7371 6.016C48.9291 6.016 49.1105 6.01067 49.2811 6C49.2705 6.77867 49.2758 7.536 49.2971 8.272C49.3185 8.99733 49.3985 9.77067 49.5371 10.592C49.6758 10.9227 49.8998 11.184 50.2091 11.376C50.5291 11.568 50.8918 11.712 51.2971 11.808C51.7025 11.904 52.1345 11.968 52.5931 12C53.0518 12.0213 53.4945 12.0213 53.9211 12C53.9745 11.84 54.0065 11.664 54.0171 11.472C54.0385 11.28 54.0438 11.088 54.0331 10.896C54.0225 10.704 54.0065 10.5173 53.9851 10.336C53.9638 10.1547 53.9425 9.98933 53.9211 9.84C53.7398 9.85067 53.5265 9.85067 53.2811 9.84C53.0465 9.82933 52.8118 9.80267 52.5771 9.76C52.3425 9.70667 52.1238 9.63733 51.9211 9.552C51.7185 9.46667 51.5638 9.34933 51.4571 9.2C51.4465 8.72 51.4411 8.208 51.4411 7.664C51.4411 7.10933 51.4411 6.544 51.4411 5.968H53.9211C53.8998 5.82933 53.8945 5.664 53.9051 5.472C53.9265 5.26933 53.9425 5.072 53.9531 4.88C53.9638 4.688 53.9638 4.512 53.9531 4.352C53.9425 4.18133 53.8998 4.05333 53.8251 3.968C53.2811 4 52.8225 4.02667 52.4491 4.048C52.0865 4.06933 51.7398 4.08533 51.4091 4.096C51.4091 3.936 51.4038 3.78133 51.3931 3.632C51.3931 3.48267 51.3931 3.33867 51.3931 3.2V1.056Z" fill="white"/>
</svg>
