<svg width="369" height="172" viewBox="0 0 369 172" fill="none" xmlns="http://www.w3.org/2000/svg">
<path d="M14.4 116.864L8.28 134H6.12L0 116.864H2.256L6.12 127.856C6.296 128.32 6.448 128.768 6.576 129.2C6.704 129.632 6.816 130.048 6.912 130.448C7.024 130.832 7.12 131.216 7.2 131.6C7.28 131.216 7.368 130.824 7.464 130.424C7.576 130.024 7.696 129.608 7.824 129.176C7.968 128.744 8.12 128.288 8.28 127.808L12.12 116.864H14.4ZM18.7826 121.136V134H16.6706V121.136H18.7826ZM17.7506 116.312C18.0706 116.312 18.3506 116.424 18.5906 116.648C18.8466 116.856 18.9746 117.192 18.9746 117.656C18.9746 118.104 18.8466 118.44 18.5906 118.664C18.3506 118.888 18.0706 119 17.7506 119C17.3986 119 17.1026 118.888 16.8626 118.664C16.6226 118.44 16.5026 118.104 16.5026 117.656C16.5026 117.192 16.6226 116.856 16.8626 116.648C17.1026 116.424 17.3986 116.312 17.7506 116.312ZM29.2901 120.896C30.8261 120.896 31.9861 121.272 32.7701 122.024C33.5541 122.76 33.9461 123.96 33.9461 125.624V134H31.8581V125.768C31.8581 124.728 31.6261 123.952 31.1621 123.44C30.6981 122.928 29.9701 122.672 28.9781 122.672C27.5541 122.672 26.5701 123.072 26.0261 123.872C25.4821 124.672 25.2101 125.824 25.2101 127.328V134H23.0981V121.136H24.8021L25.1141 122.888H25.2341C25.5221 122.44 25.8741 122.072 26.2901 121.784C26.7221 121.48 27.1941 121.256 27.7061 121.112C28.2181 120.968 28.7461 120.896 29.2901 120.896ZM43.3341 134.24C42.1981 134.24 41.1821 134.008 40.2861 133.544C39.4061 133.08 38.7101 132.36 38.1981 131.384C37.7021 130.408 37.4541 129.16 37.4541 127.64C37.4541 126.056 37.7181 124.768 38.2461 123.776C38.7741 122.784 39.4861 122.056 40.3821 121.592C41.2941 121.128 42.3261 120.896 43.4781 120.896C44.1341 120.896 44.7661 120.968 45.3741 121.112C45.9821 121.24 46.4781 121.4 46.8621 121.592L46.2141 123.344C45.8301 123.2 45.3821 123.064 44.8701 122.936C44.3581 122.808 43.8781 122.744 43.4301 122.744C42.5661 122.744 41.8541 122.928 41.2941 123.296C40.7341 123.664 40.3181 124.208 40.0461 124.928C39.7741 125.648 39.6381 126.544 39.6381 127.616C39.6381 128.64 39.7741 129.512 40.0461 130.232C40.3181 130.952 40.7261 131.496 41.2701 131.864C41.8141 132.232 42.4941 132.416 43.3101 132.416C44.0141 132.416 44.6301 132.344 45.1581 132.2C45.7021 132.056 46.1981 131.88 46.6461 131.672V133.544C46.2141 133.768 45.7341 133.936 45.2061 134.048C44.6941 134.176 44.0701 134.24 43.3341 134.24ZM54.9133 120.896C56.0173 120.896 56.9613 121.136 57.7453 121.616C58.5453 122.096 59.1533 122.776 59.5693 123.656C60.0013 124.52 60.2173 125.536 60.2173 126.704V127.976H51.4093C51.4413 129.432 51.8093 130.544 52.5133 131.312C53.2333 132.064 54.2333 132.44 55.5133 132.44C56.3293 132.44 57.0493 132.368 57.6733 132.224C58.3133 132.064 58.9693 131.84 59.6413 131.552V133.4C58.9853 133.688 58.3373 133.896 57.6973 134.024C57.0573 134.168 56.2973 134.24 55.4173 134.24C54.2013 134.24 53.1213 133.992 52.1773 133.496C51.2493 133 50.5213 132.264 49.9933 131.288C49.4813 130.296 49.2253 129.088 49.2253 127.664C49.2253 126.256 49.4573 125.048 49.9213 124.04C50.4013 123.032 51.0653 122.256 51.9133 121.712C52.7773 121.168 53.7773 120.896 54.9133 120.896ZM54.8893 122.624C53.8813 122.624 53.0813 122.952 52.4893 123.608C51.9133 124.248 51.5693 125.144 51.4573 126.296H58.0093C58.0093 125.56 57.8973 124.92 57.6733 124.376C57.4493 123.832 57.1053 123.408 56.6413 123.104C56.1933 122.784 55.6093 122.624 54.8893 122.624ZM69.9242 120.896C71.4602 120.896 72.6202 121.272 73.4042 122.024C74.1882 122.76 74.5802 123.96 74.5802 125.624V134H72.4922V125.768C72.4922 124.728 72.2602 123.952 71.7962 123.44C71.3322 122.928 70.6042 122.672 69.6122 122.672C68.1882 122.672 67.2042 123.072 66.6602 123.872C66.1162 124.672 65.8442 125.824 65.8442 127.328V134H63.7322V121.136H65.4362L65.7482 122.888H65.8682C66.1562 122.44 66.5082 122.072 66.9242 121.784C67.3562 121.48 67.8282 121.256 68.3402 121.112C68.8522 120.968 69.3802 120.896 69.9242 120.896ZM83.1041 132.512C83.4241 132.512 83.7521 132.488 84.0881 132.44C84.4241 132.376 84.6961 132.312 84.9041 132.248V133.856C84.6801 133.968 84.3601 134.056 83.9441 134.12C83.5281 134.2 83.1281 134.24 82.7441 134.24C82.0721 134.24 81.4481 134.128 80.8721 133.904C80.3121 133.664 79.8561 133.256 79.5041 132.68C79.1521 132.104 78.9761 131.296 78.9761 130.256V122.768H77.1521V121.76L79.0001 120.92L79.8401 118.184H81.0881V121.136H84.8081V122.768H81.0881V130.208C81.0881 130.992 81.2721 131.576 81.6401 131.96C82.0241 132.328 82.5121 132.512 83.1041 132.512ZM108.632 125.264C108.632 127.184 108.272 128.792 107.552 130.088C106.848 131.384 105.832 132.36 104.504 133.016C103.176 133.672 101.568 134 99.6802 134H94.9042V116.864H100.184C101.912 116.864 103.408 117.184 104.672 117.824C105.936 118.464 106.912 119.408 107.6 120.656C108.288 121.888 108.632 123.424 108.632 125.264ZM106.352 125.336C106.352 123.816 106.096 122.568 105.584 121.592C105.088 120.616 104.352 119.896 103.376 119.432C102.416 118.952 101.248 118.712 99.8722 118.712H97.0642V132.152H99.3922C101.712 132.152 103.448 131.584 104.6 130.448C105.768 129.296 106.352 127.592 106.352 125.336ZM117.26 120.92C118.828 120.92 119.988 121.264 120.74 121.952C121.492 122.64 121.868 123.736 121.868 125.24V134H120.332L119.924 132.176H119.828C119.46 132.64 119.076 133.032 118.676 133.352C118.292 133.656 117.844 133.88 117.332 134.024C116.836 134.168 116.228 134.24 115.508 134.24C114.74 134.24 114.044 134.104 113.42 133.832C112.812 133.56 112.332 133.144 111.98 132.584C111.628 132.008 111.452 131.288 111.452 130.424C111.452 129.144 111.956 128.16 112.964 127.472C113.972 126.768 115.524 126.384 117.62 126.32L119.804 126.248V125.48C119.804 124.408 119.572 123.664 119.108 123.248C118.644 122.832 117.988 122.624 117.14 122.624C116.468 122.624 115.828 122.728 115.22 122.936C114.612 123.128 114.044 123.352 113.516 123.608L112.868 122.024C113.428 121.72 114.092 121.464 114.86 121.256C115.628 121.032 116.428 120.92 117.26 120.92ZM117.884 127.784C116.284 127.848 115.172 128.104 114.548 128.552C113.94 129 113.636 129.632 113.636 130.448C113.636 131.168 113.852 131.696 114.284 132.032C114.732 132.368 115.3 132.536 115.988 132.536C117.076 132.536 117.98 132.24 118.7 131.648C119.42 131.04 119.78 130.112 119.78 128.864V127.712L117.884 127.784ZM132.273 120.896C133.809 120.896 134.969 121.272 135.753 122.024C136.537 122.76 136.929 123.96 136.929 125.624V134H134.841V125.768C134.841 124.728 134.609 123.952 134.145 123.44C133.681 122.928 132.953 122.672 131.961 122.672C130.537 122.672 129.553 123.072 129.009 123.872C128.465 124.672 128.193 125.824 128.193 127.328V134H126.081V121.136H127.785L128.097 122.888H128.217C128.505 122.44 128.857 122.072 129.273 121.784C129.705 121.48 130.177 121.256 130.689 121.112C131.201 120.968 131.729 120.896 132.273 120.896ZM145.717 120.896C146.565 120.896 147.325 121.056 147.997 121.376C148.685 121.696 149.269 122.184 149.749 122.84H149.869L150.157 121.136H151.837V134.216C151.837 135.432 151.629 136.448 151.213 137.264C150.797 138.096 150.165 138.72 149.317 139.136C148.469 139.552 147.389 139.76 146.077 139.76C145.149 139.76 144.293 139.688 143.509 139.544C142.741 139.416 142.053 139.216 141.445 138.944V137C141.861 137.208 142.317 137.384 142.813 137.528C143.309 137.688 143.845 137.808 144.421 137.888C144.997 137.968 145.589 138.008 146.197 138.008C147.301 138.008 148.165 137.68 148.789 137.024C149.429 136.384 149.749 135.504 149.749 134.384V133.88C149.749 133.688 149.757 133.416 149.773 133.064C149.789 132.696 149.805 132.44 149.821 132.296H149.725C149.277 132.952 148.717 133.44 148.045 133.76C147.389 134.08 146.621 134.24 145.741 134.24C144.077 134.24 142.773 133.656 141.829 132.488C140.901 131.32 140.437 129.688 140.437 127.592C140.437 126.216 140.645 125.032 141.061 124.04C141.493 123.032 142.101 122.256 142.885 121.712C143.669 121.168 144.613 120.896 145.717 120.896ZM146.005 122.672C145.285 122.672 144.669 122.864 144.157 123.248C143.661 123.632 143.277 124.192 143.005 124.928C142.749 125.664 142.621 126.56 142.621 127.616C142.621 129.2 142.909 130.416 143.485 131.264C144.077 132.096 144.933 132.512 146.053 132.512C146.709 132.512 147.269 132.432 147.733 132.272C148.197 132.096 148.581 131.832 148.885 131.48C149.189 131.112 149.413 130.648 149.557 130.088C149.701 129.528 149.773 128.864 149.773 128.096V127.592C149.773 126.424 149.637 125.48 149.365 124.76C149.109 124.04 148.701 123.512 148.141 123.176C147.581 122.84 146.869 122.672 146.005 122.672ZM163.827 130.38C163.827 129.485 164.181 128.57 164.888 127.633C165.617 126.697 166.605 125.865 167.853 125.137C167.125 124.221 166.574 123.368 166.199 122.577C165.825 121.766 165.637 121.059 165.637 120.455C165.637 119.56 166.002 118.791 166.73 118.146C167.479 117.501 168.373 117.178 169.414 117.178C170.412 117.178 171.266 117.542 171.973 118.27C172.701 118.999 173.065 119.883 173.065 120.923C173.065 121.735 172.784 122.536 172.223 123.326C171.661 124.117 170.891 124.793 169.913 125.355L173.315 129.787C173.44 129.287 173.533 128.819 173.596 128.382C173.679 127.925 173.721 127.498 173.721 127.103H175.063C175.063 127.914 174.99 128.653 174.844 129.319C174.719 129.964 174.522 130.515 174.251 130.973L176.998 134.593H175.125L173.253 132.377C172.732 133.126 172.056 133.709 171.224 134.125C170.412 134.562 169.549 134.78 168.634 134.78C167.302 134.78 166.168 134.354 165.232 133.501C164.295 132.627 163.827 131.586 163.827 130.38ZM165.388 130.161C165.388 131.056 165.731 131.826 166.418 132.471C167.104 133.095 167.926 133.407 168.883 133.407C169.57 133.407 170.236 133.209 170.881 132.814C171.546 132.419 172.119 131.878 172.597 131.191L168.602 126.229C167.604 126.811 166.813 127.456 166.23 128.164C165.669 128.85 165.388 129.516 165.388 130.161ZM167.198 120.705C167.198 121.1 167.354 121.61 167.666 122.234C167.978 122.837 168.436 123.524 169.039 124.294C169.788 123.857 170.381 123.337 170.818 122.733C171.255 122.13 171.474 121.527 171.474 120.923C171.474 120.257 171.286 119.685 170.912 119.207C170.537 118.728 170.09 118.489 169.57 118.489C168.925 118.489 168.363 118.707 167.884 119.144C167.427 119.581 167.198 120.101 167.198 120.705ZM199 129.416C199 130.44 198.752 131.312 198.256 132.032C197.76 132.736 197.048 133.28 196.12 133.664C195.208 134.048 194.128 134.24 192.88 134.24C192.24 134.24 191.624 134.208 191.032 134.144C190.456 134.08 189.928 133.992 189.448 133.88C188.968 133.752 188.544 133.6 188.176 133.424V131.36C188.752 131.616 189.464 131.848 190.312 132.056C191.176 132.264 192.064 132.368 192.976 132.368C193.824 132.368 194.536 132.256 195.112 132.032C195.688 131.808 196.12 131.488 196.408 131.072C196.696 130.656 196.84 130.168 196.84 129.608C196.84 129.048 196.72 128.576 196.48 128.192C196.24 127.808 195.824 127.456 195.232 127.136C194.656 126.8 193.848 126.448 192.808 126.08C192.072 125.808 191.424 125.52 190.864 125.216C190.32 124.896 189.864 124.536 189.496 124.136C189.128 123.736 188.848 123.28 188.656 122.768C188.48 122.256 188.392 121.664 188.392 120.992C188.392 120.08 188.624 119.304 189.088 118.664C189.552 118.008 190.192 117.504 191.008 117.152C191.84 116.8 192.792 116.624 193.864 116.624C194.808 116.624 195.672 116.712 196.456 116.888C197.24 117.064 197.952 117.296 198.592 117.584L197.92 119.432C197.328 119.176 196.68 118.96 195.976 118.784C195.288 118.608 194.568 118.52 193.816 118.52C193.096 118.52 192.496 118.624 192.016 118.832C191.536 119.04 191.176 119.336 190.936 119.72C190.696 120.088 190.576 120.52 190.576 121.016C190.576 121.592 190.696 122.072 190.936 122.456C191.176 122.84 191.568 123.184 192.112 123.488C192.656 123.792 193.392 124.12 194.32 124.472C195.328 124.84 196.176 125.24 196.864 125.672C197.568 126.088 198.096 126.592 198.448 127.184C198.816 127.776 199 128.52 199 129.416ZM204.515 121.112C204.515 121.416 204.499 121.728 204.467 122.048C204.451 122.368 204.427 122.656 204.395 122.912H204.539C204.811 122.464 205.155 122.096 205.571 121.808C205.987 121.52 206.451 121.304 206.963 121.16C207.475 121 208.003 120.92 208.547 120.92C209.587 120.92 210.451 121.088 211.139 121.424C211.843 121.744 212.371 122.248 212.723 122.936C213.075 123.624 213.251 124.52 213.251 125.624V134H211.163V125.768C211.163 124.728 210.931 123.952 210.467 123.44C210.003 122.928 209.275 122.672 208.283 122.672C207.323 122.672 206.571 122.856 206.027 123.224C205.483 123.576 205.091 124.104 204.851 124.808C204.627 125.496 204.515 126.344 204.515 127.352V134H202.403V115.76H204.515V121.112ZM222.351 120.92C223.919 120.92 225.079 121.264 225.831 121.952C226.583 122.64 226.959 123.736 226.959 125.24V134H225.423L225.015 132.176H224.919C224.551 132.64 224.167 133.032 223.767 133.352C223.383 133.656 222.935 133.88 222.423 134.024C221.927 134.168 221.319 134.24 220.599 134.24C219.831 134.24 219.135 134.104 218.511 133.832C217.903 133.56 217.423 133.144 217.071 132.584C216.719 132.008 216.543 131.288 216.543 130.424C216.543 129.144 217.047 128.16 218.055 127.472C219.063 126.768 220.615 126.384 222.711 126.32L224.895 126.248V125.48C224.895 124.408 224.663 123.664 224.199 123.248C223.735 122.832 223.079 122.624 222.231 122.624C221.559 122.624 220.919 122.728 220.311 122.936C219.703 123.128 219.135 123.352 218.607 123.608L217.959 122.024C218.519 121.72 219.183 121.464 219.951 121.256C220.719 121.032 221.519 120.92 222.351 120.92ZM222.975 127.784C221.375 127.848 220.263 128.104 219.639 128.552C219.031 129 218.727 129.632 218.727 130.448C218.727 131.168 218.943 131.696 219.375 132.032C219.823 132.368 220.391 132.536 221.079 132.536C222.167 132.536 223.071 132.24 223.791 131.648C224.511 131.04 224.871 130.112 224.871 128.864V127.712L222.975 127.784ZM241.925 121.136V134H240.197L239.885 132.296H239.789C239.517 132.744 239.165 133.112 238.733 133.4C238.301 133.688 237.829 133.896 237.317 134.024C236.805 134.168 236.269 134.24 235.709 134.24C234.685 134.24 233.821 134.08 233.117 133.76C232.429 133.424 231.909 132.912 231.557 132.224C231.205 131.536 231.029 130.648 231.029 129.56V121.136H233.165V129.416C233.165 130.44 233.397 131.208 233.861 131.72C234.325 132.232 235.045 132.488 236.021 132.488C236.981 132.488 237.733 132.312 238.277 131.96C238.837 131.592 239.229 131.064 239.453 130.376C239.693 129.672 239.813 128.824 239.813 127.832V121.136H241.925ZM252.44 120.896C253.976 120.896 255.136 121.272 255.92 122.024C256.704 122.76 257.096 123.96 257.096 125.624V134H255.008V125.768C255.008 124.728 254.776 123.952 254.312 123.44C253.848 122.928 253.12 122.672 252.128 122.672C250.704 122.672 249.72 123.072 249.176 123.872C248.632 124.672 248.36 125.824 248.36 127.328V134H246.248V121.136H247.952L248.264 122.888H248.384C248.672 122.44 249.024 122.072 249.44 121.784C249.872 121.48 250.344 121.256 250.856 121.112C251.368 120.968 251.896 120.896 252.44 120.896ZM281.613 134H279.453V126.008H270.669V134H268.509V116.864H270.669V124.112H279.453V116.864H281.613V134ZM291.122 120.92C292.69 120.92 293.85 121.264 294.602 121.952C295.354 122.64 295.73 123.736 295.73 125.24V134H294.194L293.786 132.176H293.69C293.322 132.64 292.938 133.032 292.538 133.352C292.154 133.656 291.706 133.88 291.194 134.024C290.698 134.168 290.09 134.24 289.37 134.24C288.602 134.24 287.906 134.104 287.282 133.832C286.674 133.56 286.194 133.144 285.842 132.584C285.49 132.008 285.314 131.288 285.314 130.424C285.314 129.144 285.818 128.16 286.826 127.472C287.834 126.768 289.386 126.384 291.482 126.32L293.666 126.248V125.48C293.666 124.408 293.434 123.664 292.97 123.248C292.506 122.832 291.85 122.624 291.002 122.624C290.33 122.624 289.69 122.728 289.082 122.936C288.474 123.128 287.906 123.352 287.378 123.608L286.73 122.024C287.29 121.72 287.954 121.464 288.722 121.256C289.49 121.032 290.29 120.92 291.122 120.92ZM291.746 127.784C290.146 127.848 289.034 128.104 288.41 128.552C287.802 129 287.498 129.632 287.498 130.448C287.498 131.168 287.714 131.696 288.146 132.032C288.594 132.368 289.162 132.536 289.85 132.536C290.938 132.536 291.842 132.24 292.562 131.648C293.282 131.04 293.642 130.112 293.642 128.864V127.712L291.746 127.784ZM306.135 120.896C307.671 120.896 308.831 121.272 309.615 122.024C310.399 122.76 310.791 123.96 310.791 125.624V134H308.703V125.768C308.703 124.728 308.471 123.952 308.007 123.44C307.543 122.928 306.815 122.672 305.823 122.672C304.399 122.672 303.415 123.072 302.871 123.872C302.327 124.672 302.055 125.824 302.055 127.328V134H299.943V121.136H301.647L301.959 122.888H302.079C302.367 122.44 302.719 122.072 303.135 121.784C303.567 121.48 304.039 121.256 304.551 121.112C305.063 120.968 305.591 120.896 306.135 120.896ZM321.211 120.896C322.747 120.896 323.907 121.272 324.691 122.024C325.475 122.76 325.867 123.96 325.867 125.624V134H323.779V125.768C323.779 124.728 323.547 123.952 323.083 123.44C322.619 122.928 321.891 122.672 320.899 122.672C319.475 122.672 318.491 123.072 317.947 123.872C317.403 124.672 317.131 125.824 317.131 127.328V134H315.019V121.136H316.723L317.035 122.888H317.155C317.443 122.44 317.795 122.072 318.211 121.784C318.643 121.48 319.115 121.256 319.627 121.112C320.139 120.968 320.667 120.896 321.211 120.896ZM341.279 127.544C341.279 128.616 341.135 129.568 340.847 130.4C340.575 131.216 340.175 131.912 339.647 132.488C339.135 133.064 338.503 133.504 337.751 133.808C337.015 134.096 336.191 134.24 335.279 134.24C334.431 134.24 333.647 134.096 332.927 133.808C332.207 133.504 331.583 133.064 331.055 132.488C330.527 131.912 330.111 131.216 329.807 130.4C329.519 129.568 329.375 128.616 329.375 127.544C329.375 126.12 329.615 124.92 330.095 123.944C330.575 122.952 331.263 122.2 332.159 121.688C333.055 121.16 334.119 120.896 335.351 120.896C336.519 120.896 337.543 121.16 338.423 121.688C339.319 122.2 340.015 122.952 340.511 123.944C341.023 124.92 341.279 126.12 341.279 127.544ZM331.559 127.544C331.559 128.552 331.687 129.432 331.943 130.184C332.215 130.92 332.631 131.488 333.191 131.888C333.751 132.288 334.463 132.488 335.327 132.488C336.191 132.488 336.903 132.288 337.463 131.888C338.023 131.488 338.431 130.92 338.687 130.184C338.959 129.432 339.095 128.552 339.095 127.544C339.095 126.52 338.959 125.648 338.687 124.928C338.415 124.208 337.999 123.656 337.439 123.272C336.895 122.872 336.183 122.672 335.303 122.672C333.991 122.672 333.039 123.104 332.447 123.968C331.855 124.832 331.559 126.024 331.559 127.544ZM351.058 120.896C352.594 120.896 353.754 121.272 354.538 122.024C355.322 122.76 355.714 123.96 355.714 125.624V134H353.626V125.768C353.626 124.728 353.394 123.952 352.93 123.44C352.466 122.928 351.738 122.672 350.746 122.672C349.322 122.672 348.338 123.072 347.794 123.872C347.25 124.672 346.978 125.824 346.978 127.328V134H344.866V121.136H346.57L346.882 122.888H347.002C347.29 122.44 347.642 122.072 348.058 121.784C348.49 121.48 348.962 121.256 349.474 121.112C349.986 120.968 350.514 120.896 351.058 120.896Z" fill="white"/>
<path d="M154.67 160.212C154.628 160.233 154.608 160.243 154.608 160.243C154.587 160.243 154.577 160.253 154.577 160.274V160.305C154.618 160.677 154.639 160.987 154.639 161.235C154.639 161.483 154.628 161.731 154.608 161.979C154.608 162.206 154.608 162.444 154.608 162.692C154.628 162.94 154.659 163.229 154.701 163.56C154.804 163.601 154.949 163.632 155.135 163.653C155.341 163.653 155.558 163.653 155.786 163.653C156.034 163.632 156.261 163.622 156.468 163.622C156.695 163.601 156.871 163.601 156.995 163.622C157.057 163.643 157.088 163.736 157.088 163.901C157.108 164.066 157.108 164.252 157.088 164.459C157.088 164.666 157.067 164.872 157.026 165.079C157.005 165.265 156.984 165.399 156.964 165.482C156.881 165.771 156.757 166.009 156.592 166.195C156.426 166.36 156.23 166.495 156.003 166.598C155.713 166.701 155.393 166.784 155.042 166.846C154.711 166.908 154.391 166.918 154.081 166.877C153.791 166.815 153.554 166.722 153.368 166.598C152.975 166.288 152.717 165.864 152.593 165.327C152.469 164.79 152.386 164.294 152.345 163.839C152.283 163.074 152.241 162.268 152.221 161.421C152.2 160.574 152.21 159.757 152.252 158.972C152.293 158.166 152.355 157.412 152.438 156.709C152.541 156.006 152.665 155.407 152.81 154.911C152.851 154.746 152.903 154.58 152.965 154.415C153.047 154.229 153.109 154.115 153.151 154.074C153.399 153.826 153.688 153.702 154.019 153.702C154.349 153.702 154.69 153.712 155.042 153.733C155.352 153.733 155.62 153.836 155.848 154.043C156.075 154.229 156.271 154.456 156.437 154.725C156.623 154.973 156.767 155.252 156.871 155.562C156.995 155.851 157.088 156.099 157.15 156.306C157.46 156.347 157.728 156.378 157.956 156.399C158.183 156.42 158.4 156.43 158.607 156.43C158.834 156.43 159.051 156.43 159.258 156.43C159.485 156.409 159.754 156.399 160.064 156.399C160.394 156.378 160.632 156.368 160.777 156.368C160.921 156.368 161.014 156.337 161.056 156.275L161.087 156.089C161.231 154.828 161.118 153.743 160.746 152.834C160.374 151.904 159.816 151.16 159.072 150.602C158.328 150.044 157.439 149.662 156.406 149.455C155.372 149.228 154.287 149.186 153.151 149.331C152.593 149.414 152.055 149.538 151.539 149.703C151.022 149.868 150.557 150.127 150.144 150.478C149.544 150.891 149.11 151.418 148.842 152.059C148.594 152.7 148.418 153.361 148.315 154.043C148.211 154.704 148.139 155.386 148.098 156.089C148.056 156.771 148.025 157.443 148.005 158.104C147.984 158.869 147.974 159.551 147.974 160.15C147.994 160.729 148.015 161.287 148.036 161.824C148.077 162.341 148.118 162.868 148.16 163.405C148.201 163.942 148.253 164.542 148.315 165.203C148.356 165.616 148.408 166.03 148.47 166.443C148.552 166.836 148.625 167.146 148.687 167.373C148.935 168.262 149.276 169.006 149.71 169.605C150.144 170.204 150.774 170.68 151.601 171.031C152.097 171.238 152.613 171.372 153.151 171.434C153.709 171.496 154.277 171.496 154.856 171.434C155.434 171.393 156.003 171.31 156.561 171.186C157.119 171.083 157.656 170.959 158.173 170.814C158.958 170.525 159.619 170.101 160.157 169.543C160.694 168.985 161.014 168.179 161.118 167.125C161.324 166.009 161.407 164.841 161.366 163.622C161.324 162.382 161.242 161.214 161.118 160.119L161.087 160.088H161.025C160.818 160.088 160.415 160.067 159.816 160.026C159.237 159.964 158.607 159.923 157.925 159.902C157.243 159.881 156.592 159.892 155.972 159.933C155.372 159.954 154.938 160.047 154.67 160.212ZM175.981 155.562C175.319 155.521 174.73 155.49 174.214 155.469C173.718 155.448 173.294 155.428 172.943 155.407C172.881 155.407 172.767 155.407 172.602 155.407C172.436 155.407 172.271 155.407 172.106 155.407C171.94 155.386 171.785 155.386 171.641 155.407C171.517 155.407 171.455 155.417 171.455 155.438C171.455 155.686 171.424 155.934 171.362 156.182C171.32 156.409 171.31 156.688 171.331 157.019C171.186 156.668 171.01 156.399 170.804 156.213C170.597 156.006 170.359 155.862 170.091 155.779C169.822 155.676 169.522 155.624 169.192 155.624C168.882 155.603 168.541 155.593 168.169 155.593C167.445 155.614 166.763 155.81 166.123 156.182C165.482 156.533 164.924 157.029 164.449 157.67C163.994 158.29 163.632 159.034 163.364 159.902C163.095 160.77 162.961 161.721 162.961 162.754C162.961 163.581 163.043 164.48 163.209 165.451C163.395 166.422 163.674 167.321 164.046 168.148C164.418 168.975 164.883 169.667 165.441 170.225C166.019 170.783 166.712 171.062 167.518 171.062C168.241 171.062 168.975 170.886 169.719 170.535C170.483 170.184 171.114 169.76 171.61 169.264C171.61 169.471 171.589 169.646 171.548 169.791C171.506 169.936 171.486 170.122 171.486 170.349C171.486 170.514 171.506 170.659 171.548 170.783C171.61 170.907 171.713 170.99 171.858 171.031C172.085 171.031 172.302 171.021 172.509 171C172.736 170.959 172.963 170.938 173.191 170.938C173.521 170.938 173.852 170.959 174.183 171C174.534 171.021 174.875 171.031 175.206 171.031H175.578C175.826 170.99 175.95 170.835 175.95 170.566C175.97 170.297 175.981 170.029 175.981 169.76C176.125 167.549 176.156 165.368 176.074 163.219C175.991 161.049 175.981 158.848 176.043 156.616V156.306C176.043 156.182 176.032 156.058 176.012 155.934C176.012 155.81 176.001 155.686 175.981 155.562ZM166.96 161.731C167.063 161.214 167.352 160.76 167.828 160.367C168.324 159.954 168.995 159.747 169.843 159.747C170.277 159.747 170.597 159.778 170.804 159.84C171.031 159.902 171.186 160.047 171.269 160.274C171.372 160.501 171.424 160.832 171.424 161.266C171.444 161.679 171.455 162.248 171.455 162.971C171.455 163.55 171.444 164.077 171.424 164.552C171.424 165.007 171.362 165.399 171.238 165.73C171.134 166.04 170.948 166.288 170.68 166.474C170.432 166.639 170.049 166.722 169.533 166.722C168.665 166.722 167.983 166.402 167.487 165.761C167.011 165.1 166.774 164.304 166.774 163.374C166.774 163.105 166.784 162.837 166.805 162.568C166.825 162.279 166.877 162 166.96 161.731ZM182.633 157.174C182.612 156.885 182.602 156.626 182.602 156.399C182.622 156.172 182.612 155.882 182.571 155.531C182.571 155.469 182.488 155.438 182.323 155.438C182.157 155.417 181.971 155.417 181.765 155.438C181.558 155.459 181.351 155.49 181.145 155.531C180.938 155.552 180.793 155.562 180.711 155.562C180.463 155.583 180.256 155.603 180.091 155.624C179.925 155.624 179.77 155.624 179.626 155.624C179.481 155.624 179.326 155.624 179.161 155.624C178.995 155.603 178.789 155.583 178.541 155.562C178.458 158.29 178.437 160.925 178.479 163.467C178.541 166.009 178.572 168.551 178.572 171.093C179.068 171.052 179.481 171.041 179.812 171.062C180.142 171.083 180.442 171.093 180.711 171.093C180.979 171.114 181.238 171.114 181.486 171.093C181.754 171.072 182.064 171.01 182.416 170.907V170.783C182.498 170.101 182.54 169.419 182.54 168.737C182.54 168.055 182.519 167.373 182.478 166.691C182.457 165.988 182.436 165.296 182.416 164.614C182.395 163.911 182.405 163.198 182.447 162.475C182.488 161.917 182.633 161.504 182.881 161.235C183.129 160.946 183.408 160.76 183.718 160.677C184.028 160.574 184.338 160.553 184.648 160.615C184.978 160.656 185.226 160.718 185.392 160.801C185.412 160.822 185.433 160.832 185.454 160.832C185.474 160.832 185.495 160.842 185.516 160.863C185.681 160.987 185.805 161.163 185.888 161.39C185.991 161.617 186.063 161.876 186.105 162.165C186.167 162.454 186.208 162.754 186.229 163.064C186.249 163.353 186.27 163.622 186.291 163.87C186.332 164.428 186.353 165.027 186.353 165.668C186.373 166.309 186.373 166.949 186.353 167.59C186.353 168.231 186.353 168.851 186.353 169.45C186.353 170.049 186.373 170.587 186.415 171.062C187.138 171.062 187.779 171.062 188.337 171.062C188.915 171.083 189.566 171.041 190.29 170.938C190.248 170.318 190.228 169.605 190.228 168.799C190.248 167.972 190.269 167.125 190.29 166.257C190.31 165.368 190.331 164.48 190.352 163.591C190.372 162.682 190.372 161.824 190.352 161.018C190.538 160.873 190.734 160.77 190.941 160.708C191.168 160.625 191.385 160.584 191.592 160.584C191.819 160.584 192.026 160.605 192.212 160.646C192.398 160.687 192.553 160.739 192.677 160.801C192.697 160.822 192.718 160.832 192.739 160.832C192.759 160.832 192.78 160.842 192.801 160.863C192.966 160.987 193.09 161.163 193.173 161.39C193.276 161.617 193.348 161.876 193.39 162.165C193.452 162.454 193.493 162.754 193.514 163.064C193.534 163.353 193.555 163.622 193.576 163.87C193.617 164.428 193.638 165.027 193.638 165.668C193.658 166.309 193.658 166.949 193.638 167.59C193.638 168.231 193.638 168.851 193.638 169.45C193.638 170.049 193.658 170.587 193.7 171.062C194.423 171.062 195.064 171.062 195.622 171.062C196.2 171.083 196.851 171.041 197.575 170.938C197.533 170.235 197.523 169.419 197.544 168.489C197.564 167.559 197.585 166.598 197.606 165.606C197.626 164.593 197.637 163.601 197.637 162.63C197.657 161.638 197.647 160.729 197.606 159.902C197.585 159.075 197.513 158.373 197.389 157.794C197.285 157.195 197.13 156.802 196.924 156.616C196.49 156.244 196.004 155.986 195.467 155.841C194.929 155.696 194.371 155.634 193.793 155.655C193.235 155.676 192.687 155.779 192.15 155.965C191.612 156.151 191.127 156.399 190.693 156.709C190.589 156.792 190.465 156.874 190.321 156.957C190.176 157.019 190.052 157.081 189.949 157.143C189.845 156.895 189.742 156.719 189.639 156.616C189.205 156.244 188.719 155.986 188.182 155.841C187.644 155.696 187.086 155.634 186.508 155.655C185.95 155.676 185.402 155.779 184.865 155.965C184.327 156.151 183.842 156.399 183.408 156.709C183.304 156.792 183.17 156.874 183.005 156.957C182.86 157.04 182.736 157.112 182.633 157.174ZM203.762 163.219C203.969 163.26 204.299 163.291 204.754 163.312C205.209 163.333 205.715 163.343 206.273 163.343C206.852 163.343 207.451 163.333 208.071 163.312C208.691 163.291 209.27 163.26 209.807 163.219C210.365 163.178 210.84 163.136 211.233 163.095C211.646 163.054 211.925 163.012 212.07 162.971C212.132 162.103 212.132 161.245 212.07 160.398C212.008 159.551 211.822 158.776 211.512 158.073C211.223 157.37 210.789 156.771 210.21 156.275C209.631 155.779 208.867 155.448 207.916 155.283C207.172 155.097 206.407 155.014 205.622 155.035C204.837 155.056 204.093 155.18 203.39 155.407C202.687 155.614 202.057 155.934 201.499 156.368C200.941 156.781 200.528 157.288 200.259 157.887C200.011 158.569 199.846 159.272 199.763 159.995C199.701 160.698 199.639 161.431 199.577 162.196C199.536 163.043 199.556 163.891 199.639 164.738C199.722 165.585 199.877 166.391 200.104 167.156C200.331 167.9 200.631 168.592 201.003 169.233C201.375 169.853 201.84 170.359 202.398 170.752C202.894 171.041 203.431 171.227 204.01 171.31C204.589 171.31 205.219 171.331 205.901 171.372C206.604 171.413 207.286 171.413 207.947 171.372C208.608 171.331 209.218 171.207 209.776 171C210.334 170.793 210.789 170.442 211.14 169.946C211.285 169.822 211.398 169.605 211.481 169.295C211.584 168.964 211.667 168.582 211.729 168.148C211.791 167.693 211.843 167.208 211.884 166.691C211.925 166.174 211.967 165.647 212.008 165.11C211.781 165.048 211.491 165.017 211.14 165.017C210.789 164.996 210.417 164.996 210.024 165.017C209.652 165.038 209.29 165.058 208.939 165.079C208.588 165.079 208.309 165.069 208.102 165.048C208.143 165.895 208.009 166.536 207.699 166.97C207.41 167.383 207.048 167.631 206.614 167.714C206.18 167.797 205.736 167.724 205.281 167.497C204.826 167.27 204.475 166.918 204.227 166.443C204 166.071 203.865 165.689 203.824 165.296C203.803 164.903 203.783 164.397 203.762 163.777V163.219ZM207.513 158.414C207.885 158.6 208.174 158.879 208.381 159.251C208.608 159.623 208.722 160.016 208.722 160.429C208.722 160.594 208.722 160.708 208.722 160.77C208.722 160.811 208.66 160.842 208.536 160.863C208.433 160.863 208.247 160.853 207.978 160.832C207.709 160.811 207.306 160.801 206.769 160.801C205.984 160.801 205.384 160.811 204.971 160.832C204.578 160.832 204.289 160.822 204.103 160.801C203.917 160.76 203.814 160.698 203.793 160.615C203.793 160.512 203.814 160.346 203.855 160.119C203.896 159.85 203.958 159.592 204.041 159.344C204.144 159.096 204.289 158.879 204.475 158.693C204.661 158.507 204.909 158.362 205.219 158.259C205.529 158.156 205.932 158.104 206.428 158.104C206.655 158.104 206.852 158.135 207.017 158.197C207.182 158.238 207.348 158.311 207.513 158.414Z" fill="#FA5559"/>
<path d="M158.056 0.0109002C172.578 0.0109002 184.349 12.7563 184.349 28.478C184.349 44.1997 172.578 56.9448 158.056 56.9448C143.535 56.9448 131.764 44.1998 131.764 28.478C131.782 12.7639 143.543 0.0302773 158.055 0.0110212H158.057L158.056 0.0109002ZM158.056 48.4893C168.265 48.4893 176.539 39.5298 176.539 28.478C176.539 17.4262 168.264 8.46663 158.056 8.46663C147.849 8.46663 139.574 17.4262 139.574 28.478C139.585 39.5248 147.853 48.4765 158.055 48.4893H158.057H158.056ZM196.35 107.334L192.706 87.83C189.455 70.0236 175.146 56.7821 157.981 56.7821C140.816 56.7821 126.507 70.0236 123.294 87.5866L123.256 87.83L119.664 107.34L112 105.665L115.592 86.1614C119.599 64.4658 137.05 48.3468 157.978 48.3468C178.907 48.3468 196.358 64.466 200.318 85.8628L200.364 86.1615L204.009 105.637L196.35 107.334ZM182.943 56.9223H182.916C177.474 56.9223 172.419 55.1233 168.232 52.0448L168.324 52.1082L172.676 45.09C175.568 47.2174 179.136 48.4865 182.978 48.4865C193.186 48.4865 201.461 39.527 201.461 28.4751C201.461 17.4231 193.185 8.46372 182.978 8.46372C179.136 8.46372 175.568 9.73293 172.611 11.9049L172.676 11.8601L168.324 4.84212C172.44 1.80959 177.52 0 182.991 0C197.509 0 209.279 12.7426 209.279 28.4612C209.279 44.1799 197.509 56.9225 182.991 56.9225H182.941H182.943L182.943 56.9223ZM221.341 107.328L217.697 87.7679C214.366 70.0409 200.086 56.8879 182.968 56.8879C178.951 56.8879 175.089 57.6124 171.49 58.9473L171.739 58.867L169.261 50.8569C173.351 49.3249 178.064 48.4404 182.969 48.4404C203.857 48.4404 221.284 64.4865 225.308 85.815L225.355 86.1162L229 105.665L221.341 107.328Z" fill="white"/>
</svg>
