<svg width="30" height="31" viewBox="0 0 44 31" fill="none" xmlns="http://www.w3.org/2000/svg">
<path d="M1 0.5C0.723858 0.5 0.5 0.723858 0.5 1C0.5 1.27614 0.723858 1.5 1 1.5L1 0.5ZM1 1.5L44 1.5V0.5L1 0.5L1 1.5Z" fill="white"/>
<path d="M1 15C0.723858 15 0.5 15.2239 0.5 15.5C0.5 15.7761 0.723858 16 1 16L1 15ZM1 16L44 16V15L1 15L1 16Z" fill="white"/>
<path d="M12.0256 7.75C11.7495 7.75 11.5256 7.97386 11.5256 8.25C11.5256 8.52614 11.7495 8.75 12.0256 8.75V7.75ZM12.0256 8.75L44 8.75V7.75L12.0256 7.75V8.75Z" fill="white"/>
<path d="M12.0256 22.25C11.7495 22.25 11.5256 22.4739 11.5256 22.75C11.5256 23.0261 11.7495 23.25 12.0256 23.25V22.25ZM12.0256 23.25L44 23.25V22.25L12.0256 22.25V23.25Z" fill="white"/>
<path d="M1 29.5C0.723858 29.5 0.5 29.7239 0.5 30C0.5 30.2761 0.723858 30.5 1 30.5L1 29.5ZM1 30.5L44 30.5V29.5L1 29.5L1 30.5Z" fill="white"/>
</svg>
