<svg width="379" height="189" viewBox="0 0 379 189" fill="none" xmlns="http://www.w3.org/2000/svg">
<path d="M10.9 143L9.18 138.58H3.52L1.82 143H0L5.58 128.66H7.2L12.76 143H10.9ZM7.04 132.66C7 132.553 6.93333 132.36 6.84 132.08C6.74667 131.8 6.65333 131.513 6.56 131.22C6.48 130.913 6.41333 130.68 6.36 130.52C6.29333 130.787 6.22 131.06 6.14 131.34C6.07333 131.607 6 131.853 5.92 132.08C5.85333 132.307 5.79333 132.5 5.74 132.66L4.12 136.98H8.64L7.04 132.66ZM16.4334 143H14.6734V127.8H16.4334V143ZM21.7897 143H20.0297V127.8H21.7897V143ZM34.7059 137.62C34.7059 138.513 34.5859 139.307 34.3459 140C34.1193 140.68 33.7859 141.26 33.3459 141.74C32.9193 142.22 32.3926 142.587 31.7659 142.84C31.1526 143.08 30.4659 143.2 29.7059 143.2C28.9993 143.2 28.3459 143.08 27.7459 142.84C27.1459 142.587 26.6259 142.22 26.1859 141.74C25.7459 141.26 25.3993 140.68 25.1459 140C24.9059 139.307 24.7859 138.513 24.7859 137.62C24.7859 136.433 24.9859 135.433 25.3859 134.62C25.7859 133.793 26.3593 133.167 27.1059 132.74C27.8526 132.3 28.7393 132.08 29.7659 132.08C30.7393 132.08 31.5926 132.3 32.3259 132.74C33.0726 133.167 33.6526 133.793 34.0659 134.62C34.4926 135.433 34.7059 136.433 34.7059 137.62ZM26.6059 137.62C26.6059 138.46 26.7126 139.193 26.9259 139.82C27.1526 140.433 27.4993 140.907 27.9659 141.24C28.4326 141.573 29.0259 141.74 29.7459 141.74C30.4659 141.74 31.0593 141.573 31.5259 141.24C31.9926 140.907 32.3326 140.433 32.5459 139.82C32.7726 139.193 32.8859 138.46 32.8859 137.62C32.8859 136.767 32.7726 136.04 32.5459 135.44C32.3193 134.84 31.9726 134.38 31.5059 134.06C31.0526 133.727 30.4593 133.56 29.7259 133.56C28.6326 133.56 27.8393 133.92 27.3459 134.64C26.8526 135.36 26.6059 136.353 26.6059 137.62ZM44.2247 136.94C44.1447 136.66 44.0647 136.387 43.9847 136.12C43.9047 135.84 43.8314 135.58 43.7647 135.34C43.7114 135.087 43.658 134.853 43.6047 134.64C43.5514 134.427 43.5114 134.247 43.4847 134.1H43.4047C43.378 134.247 43.338 134.427 43.2847 134.64C43.2447 134.853 43.1914 135.087 43.1247 135.34C43.0714 135.593 43.0047 135.86 42.9247 136.14C42.858 136.407 42.778 136.68 42.6847 136.96L40.7647 142.98H38.7647L35.8247 132.26H37.6447L39.1247 137.98C39.2314 138.367 39.3314 138.76 39.4247 139.16C39.518 139.547 39.598 139.92 39.6647 140.28C39.7447 140.627 39.798 140.927 39.8247 141.18H39.9047C39.9447 141.02 39.9914 140.82 40.0447 140.58C40.098 140.34 40.1514 140.087 40.2047 139.82C40.2714 139.553 40.338 139.287 40.4047 139.02C40.4847 138.753 40.558 138.513 40.6247 138.3L42.5247 132.26H44.4447L46.2847 138.3C46.378 138.607 46.4714 138.933 46.5647 139.28C46.6714 139.627 46.7647 139.967 46.8447 140.3C46.9247 140.62 46.978 140.907 47.0047 141.16H47.0847C47.1114 140.933 47.158 140.653 47.2247 140.32C47.3047 139.973 47.3914 139.6 47.4847 139.2C47.5914 138.787 47.698 138.38 47.8047 137.98L49.3047 132.26H51.1047L48.1247 142.98H46.0647L44.2247 136.94ZM51.5473 132.28H53.4273L55.7473 138.38C55.8807 138.74 56.0007 139.087 56.1073 139.42C56.2273 139.753 56.334 140.08 56.4273 140.4C56.5207 140.707 56.594 141.007 56.6473 141.3H56.7273C56.8073 140.967 56.934 140.533 57.1073 140C57.2807 139.453 57.4607 138.907 57.6473 138.36L59.8273 132.28H61.7273L57.1073 144.48C56.854 145.147 56.554 145.727 56.2073 146.22C55.874 146.727 55.4607 147.113 54.9673 147.38C54.4873 147.66 53.9007 147.8 53.2073 147.8C52.8873 147.8 52.6073 147.78 52.3673 147.74C52.1273 147.713 51.9207 147.68 51.7473 147.64V146.24C51.894 146.267 52.0673 146.293 52.2673 146.32C52.4807 146.347 52.7007 146.36 52.9273 146.36C53.3407 146.36 53.694 146.28 53.9873 146.12C54.294 145.973 54.554 145.753 54.7673 145.46C54.9807 145.18 55.1607 144.847 55.3073 144.46L55.8673 143.04L51.5473 132.28ZM68.7827 132.08C70.0627 132.08 71.0293 132.393 71.6827 133.02C72.336 133.633 72.6627 134.633 72.6627 136.02V143H70.9227V136.14C70.9227 135.273 70.7293 134.627 70.3427 134.2C69.956 133.773 69.3493 133.56 68.5227 133.56C67.336 133.56 66.516 133.893 66.0627 134.56C65.6093 135.227 65.3827 136.187 65.3827 137.44V143H63.6227V132.28H65.0427L65.3027 133.74H65.4027C65.6427 133.367 65.936 133.06 66.2827 132.82C66.6427 132.567 67.036 132.38 67.4627 132.26C67.8893 132.14 68.3293 132.08 68.7827 132.08ZM80.3259 132.08C81.2459 132.08 82.0326 132.28 82.6859 132.68C83.3526 133.08 83.8593 133.647 84.2059 134.38C84.5659 135.1 84.7459 135.947 84.7459 136.92V137.98H77.4059C77.4326 139.193 77.7393 140.12 78.3259 140.76C78.9259 141.387 79.7593 141.7 80.8259 141.7C81.5059 141.7 82.1059 141.64 82.6259 141.52C83.1593 141.387 83.7059 141.2 84.2659 140.96V142.5C83.7193 142.74 83.1793 142.913 82.6459 143.02C82.1126 143.14 81.4793 143.2 80.7459 143.2C79.7326 143.2 78.8326 142.993 78.0459 142.58C77.2726 142.167 76.6659 141.553 76.2259 140.74C75.7993 139.913 75.5859 138.907 75.5859 137.72C75.5859 136.547 75.7793 135.54 76.1659 134.7C76.5659 133.86 77.1193 133.213 77.8259 132.76C78.5459 132.307 79.3793 132.08 80.3259 132.08ZM80.3059 133.52C79.4659 133.52 78.7993 133.793 78.3059 134.34C77.8259 134.873 77.5393 135.62 77.4459 136.58H82.9059C82.9059 135.967 82.8126 135.433 82.6259 134.98C82.4393 134.527 82.1526 134.173 81.7659 133.92C81.3926 133.653 80.9059 133.52 80.3059 133.52ZM99.9619 143L95.2619 130.48H95.1819C95.2085 130.747 95.2285 131.087 95.2419 131.5C95.2685 131.913 95.2885 132.367 95.3019 132.86C95.3152 133.34 95.3219 133.833 95.3219 134.34V143H93.6619V128.72H96.3219L100.722 140.42H100.802L105.282 128.72H107.922V143H106.142V134.22C106.142 133.753 106.149 133.293 106.162 132.84C106.175 132.373 106.195 131.94 106.222 131.54C106.249 131.127 106.269 130.78 106.282 130.5H106.202L101.442 143H99.9619ZM115.626 132.1C116.933 132.1 117.9 132.387 118.526 132.96C119.153 133.533 119.466 134.447 119.466 135.7V143H118.186L117.846 141.48H117.766C117.46 141.867 117.14 142.193 116.806 142.46C116.486 142.713 116.113 142.9 115.686 143.02C115.273 143.14 114.766 143.2 114.166 143.2C113.526 143.2 112.946 143.087 112.426 142.86C111.92 142.633 111.52 142.287 111.226 141.82C110.933 141.34 110.786 140.74 110.786 140.02C110.786 138.953 111.206 138.133 112.046 137.56C112.886 136.973 114.18 136.653 115.926 136.6L117.746 136.54V135.9C117.746 135.007 117.553 134.387 117.166 134.04C116.78 133.693 116.233 133.52 115.526 133.52C114.966 133.52 114.433 133.607 113.926 133.78C113.42 133.94 112.946 134.127 112.506 134.34L111.966 133.02C112.433 132.767 112.986 132.553 113.626 132.38C114.266 132.193 114.933 132.1 115.626 132.1ZM116.146 137.82C114.813 137.873 113.886 138.087 113.366 138.46C112.86 138.833 112.606 139.36 112.606 140.04C112.606 140.64 112.786 141.08 113.146 141.36C113.52 141.64 113.993 141.78 114.566 141.78C115.473 141.78 116.226 141.533 116.826 141.04C117.426 140.533 117.726 139.76 117.726 138.72V137.76L116.146 137.82ZM126.777 143.2C125.444 143.2 124.377 142.74 123.577 141.82C122.777 140.887 122.377 139.5 122.377 137.66C122.377 135.82 122.777 134.433 123.577 133.5C124.391 132.553 125.464 132.08 126.797 132.08C127.357 132.08 127.844 132.153 128.257 132.3C128.671 132.433 129.031 132.62 129.337 132.86C129.644 133.1 129.904 133.367 130.117 133.66H130.237C130.224 133.487 130.197 133.233 130.157 132.9C130.131 132.553 130.117 132.28 130.117 132.08V127.8H131.877V143H130.457L130.197 141.56H130.117C129.904 141.867 129.644 142.147 129.337 142.4C129.031 142.64 128.664 142.833 128.237 142.98C127.824 143.127 127.337 143.2 126.777 143.2ZM127.057 141.74C128.191 141.74 128.984 141.433 129.437 140.82C129.904 140.193 130.137 139.253 130.137 138V137.68C130.137 136.347 129.917 135.327 129.477 134.62C129.037 133.9 128.224 133.54 127.037 133.54C126.091 133.54 125.377 133.92 124.897 134.68C124.431 135.427 124.197 136.433 124.197 137.7C124.197 138.98 124.431 139.973 124.897 140.68C125.377 141.387 126.097 141.74 127.057 141.74ZM137.242 132.28V143H135.482V132.28H137.242ZM136.382 128.26C136.649 128.26 136.882 128.353 137.082 128.54C137.295 128.713 137.402 128.993 137.402 129.38C137.402 129.753 137.295 130.033 137.082 130.22C136.882 130.407 136.649 130.5 136.382 130.5C136.089 130.5 135.842 130.407 135.642 130.22C135.442 130.033 135.342 129.753 135.342 129.38C135.342 128.993 135.442 128.713 135.642 128.54C135.842 128.353 136.089 128.26 136.382 128.26ZM147.818 140.04C147.818 140.733 147.645 141.313 147.298 141.78C146.952 142.247 146.458 142.6 145.818 142.84C145.178 143.08 144.418 143.2 143.538 143.2C142.792 143.2 142.145 143.14 141.598 143.02C141.065 142.9 140.592 142.733 140.178 142.52V140.92C140.605 141.133 141.118 141.333 141.718 141.52C142.332 141.693 142.952 141.78 143.578 141.78C144.472 141.78 145.118 141.64 145.518 141.36C145.918 141.067 146.118 140.68 146.118 140.2C146.118 139.933 146.045 139.693 145.898 139.48C145.752 139.267 145.485 139.053 145.098 138.84C144.725 138.627 144.185 138.387 143.478 138.12C142.785 137.853 142.192 137.587 141.698 137.32C141.205 137.053 140.825 136.733 140.558 136.36C140.292 135.987 140.158 135.507 140.158 134.92C140.158 134.013 140.525 133.313 141.258 132.82C142.005 132.327 142.978 132.08 144.178 132.08C144.832 132.08 145.438 132.147 145.998 132.28C146.572 132.4 147.105 132.573 147.598 132.8L146.998 134.2C146.705 134.067 146.392 133.953 146.058 133.86C145.738 133.753 145.412 133.673 145.078 133.62C144.745 133.553 144.405 133.52 144.058 133.52C143.338 133.52 142.785 133.64 142.398 133.88C142.025 134.107 141.838 134.42 141.838 134.82C141.838 135.113 141.925 135.367 142.098 135.58C142.272 135.78 142.558 135.98 142.958 136.18C143.372 136.367 143.918 136.593 144.598 136.86C145.278 137.113 145.858 137.373 146.338 137.64C146.818 137.907 147.185 138.233 147.438 138.62C147.692 138.993 147.818 139.467 147.818 140.04ZM159.929 137.62C159.929 138.513 159.809 139.307 159.569 140C159.342 140.68 159.009 141.26 158.569 141.74C158.142 142.22 157.615 142.587 156.989 142.84C156.375 143.08 155.689 143.2 154.929 143.2C154.222 143.2 153.569 143.08 152.969 142.84C152.369 142.587 151.849 142.22 151.409 141.74C150.969 141.26 150.622 140.68 150.369 140C150.129 139.307 150.009 138.513 150.009 137.62C150.009 136.433 150.209 135.433 150.609 134.62C151.009 133.793 151.582 133.167 152.329 132.74C153.075 132.3 153.962 132.08 154.989 132.08C155.962 132.08 156.815 132.3 157.549 132.74C158.295 133.167 158.875 133.793 159.289 134.62C159.715 135.433 159.929 136.433 159.929 137.62ZM151.829 137.62C151.829 138.46 151.935 139.193 152.149 139.82C152.375 140.433 152.722 140.907 153.189 141.24C153.655 141.573 154.249 141.74 154.969 141.74C155.689 141.74 156.282 141.573 156.749 141.24C157.215 140.907 157.555 140.433 157.769 139.82C157.995 139.193 158.109 138.46 158.109 137.62C158.109 136.767 157.995 136.04 157.769 135.44C157.542 134.84 157.195 134.38 156.729 134.06C156.275 133.727 155.682 133.56 154.949 133.56C153.855 133.56 153.062 133.92 152.569 134.64C152.075 135.36 151.829 136.353 151.829 137.62ZM168.078 132.08C169.358 132.08 170.325 132.393 170.978 133.02C171.631 133.633 171.958 134.633 171.958 136.02V143H170.218V136.14C170.218 135.273 170.025 134.627 169.638 134.2C169.251 133.773 168.645 133.56 167.818 133.56C166.631 133.56 165.811 133.893 165.358 134.56C164.905 135.227 164.678 136.187 164.678 137.44V143H162.918V132.28H164.338L164.598 133.74H164.698C164.938 133.367 165.231 133.06 165.578 132.82C165.938 132.567 166.331 132.38 166.758 132.26C167.185 132.14 167.625 132.08 168.078 132.08ZM181.869 139.983C181.869 139.238 182.164 138.475 182.753 137.694C183.36 136.914 184.184 136.221 185.224 135.614C184.617 134.851 184.158 134.14 183.845 133.481C183.533 132.805 183.377 132.215 183.377 131.713C183.377 130.967 183.681 130.326 184.288 129.788C184.912 129.251 185.657 128.982 186.524 128.982C187.356 128.982 188.067 129.285 188.657 129.892C189.264 130.499 189.567 131.236 189.567 132.103C189.567 132.779 189.333 133.446 188.865 134.105C188.397 134.764 187.755 135.328 186.94 135.796L189.775 139.489C189.879 139.073 189.957 138.683 190.009 138.319C190.079 137.937 190.113 137.582 190.113 137.252H191.232C191.232 137.928 191.171 138.544 191.05 139.099C190.946 139.636 190.781 140.096 190.555 140.477L192.844 143.494H191.284L189.723 141.648C189.29 142.272 188.726 142.757 188.033 143.104C187.356 143.468 186.637 143.65 185.874 143.65C184.764 143.65 183.819 143.295 183.039 142.584C182.259 141.856 181.869 140.989 181.869 139.983ZM183.169 139.801C183.169 140.547 183.455 141.188 184.027 141.726C184.6 142.246 185.285 142.506 186.082 142.506C186.654 142.506 187.209 142.341 187.747 142.012C188.301 141.682 188.778 141.231 189.177 140.659L185.848 136.524C185.016 137.01 184.357 137.547 183.871 138.137C183.403 138.709 183.169 139.264 183.169 139.801ZM184.678 131.921C184.678 132.25 184.808 132.675 185.068 133.195C185.328 133.698 185.709 134.27 186.212 134.912C186.836 134.547 187.33 134.114 187.695 133.611C188.059 133.108 188.241 132.606 188.241 132.103C188.241 131.548 188.085 131.071 187.773 130.672C187.461 130.274 187.088 130.074 186.654 130.074C186.117 130.074 185.649 130.256 185.25 130.62C184.868 130.984 184.678 131.418 184.678 131.921ZM211.179 139.18C211.179 140.033 210.972 140.76 210.559 141.36C210.146 141.947 209.552 142.4 208.779 142.72C208.019 143.04 207.119 143.2 206.079 143.2C205.546 143.2 205.032 143.173 204.539 143.12C204.059 143.067 203.619 142.993 203.219 142.9C202.819 142.793 202.466 142.667 202.159 142.52V140.8C202.639 141.013 203.232 141.207 203.939 141.38C204.659 141.553 205.399 141.64 206.159 141.64C206.866 141.64 207.459 141.547 207.939 141.36C208.419 141.173 208.779 140.907 209.019 140.56C209.259 140.213 209.379 139.807 209.379 139.34C209.379 138.873 209.279 138.48 209.079 138.16C208.879 137.84 208.532 137.547 208.039 137.28C207.559 137 206.886 136.707 206.019 136.4C205.406 136.173 204.866 135.933 204.399 135.68C203.946 135.413 203.566 135.113 203.259 134.78C202.952 134.447 202.719 134.067 202.559 133.64C202.412 133.213 202.339 132.72 202.339 132.16C202.339 131.4 202.532 130.753 202.919 130.22C203.306 129.673 203.839 129.253 204.519 128.96C205.212 128.667 206.006 128.52 206.899 128.52C207.686 128.52 208.406 128.593 209.059 128.74C209.712 128.887 210.306 129.08 210.839 129.32L210.279 130.86C209.786 130.647 209.246 130.467 208.659 130.32C208.086 130.173 207.486 130.1 206.859 130.1C206.259 130.1 205.759 130.187 205.359 130.36C204.959 130.533 204.659 130.78 204.459 131.1C204.259 131.407 204.159 131.767 204.159 132.18C204.159 132.66 204.259 133.06 204.459 133.38C204.659 133.7 204.986 133.987 205.439 134.24C205.892 134.493 206.506 134.767 207.279 135.06C208.119 135.367 208.826 135.7 209.399 136.06C209.986 136.407 210.426 136.827 210.719 137.32C211.026 137.813 211.179 138.433 211.179 139.18ZM218.076 132.1C219.382 132.1 220.349 132.387 220.976 132.96C221.602 133.533 221.916 134.447 221.916 135.7V143H220.636L220.296 141.48H220.216C219.909 141.867 219.589 142.193 219.256 142.46C218.936 142.713 218.562 142.9 218.136 143.02C217.722 143.14 217.216 143.2 216.616 143.2C215.976 143.2 215.396 143.087 214.876 142.86C214.369 142.633 213.969 142.287 213.676 141.82C213.382 141.34 213.236 140.74 213.236 140.02C213.236 138.953 213.656 138.133 214.496 137.56C215.336 136.973 216.629 136.653 218.376 136.6L220.196 136.54V135.9C220.196 135.007 220.002 134.387 219.616 134.04C219.229 133.693 218.682 133.52 217.976 133.52C217.416 133.52 216.882 133.607 216.376 133.78C215.869 133.94 215.396 134.127 214.956 134.34L214.416 133.02C214.882 132.767 215.436 132.553 216.076 132.38C216.716 132.193 217.382 132.1 218.076 132.1ZM218.596 137.82C217.262 137.873 216.336 138.087 215.816 138.46C215.309 138.833 215.056 139.36 215.056 140.04C215.056 140.64 215.236 141.08 215.596 141.36C215.969 141.64 216.442 141.78 217.016 141.78C217.922 141.78 218.676 141.533 219.276 141.04C219.876 140.533 220.176 139.76 220.176 138.72V137.76L218.596 137.82ZM237.187 132.08C238.4 132.08 239.307 132.393 239.907 133.02C240.507 133.633 240.807 134.633 240.807 136.02V143H239.067V136.1C239.067 135.26 238.887 134.627 238.527 134.2C238.18 133.773 237.633 133.56 236.887 133.56C235.847 133.56 235.1 133.86 234.647 134.46C234.207 135.06 233.987 135.933 233.987 137.08V143H232.247V136.1C232.247 135.54 232.167 135.073 232.007 134.7C231.847 134.313 231.607 134.027 231.287 133.84C230.967 133.653 230.553 133.56 230.047 133.56C229.327 133.56 228.76 133.713 228.347 134.02C227.933 134.313 227.633 134.747 227.447 135.32C227.273 135.893 227.187 136.6 227.187 137.44V143H225.427V132.28H226.847L227.107 133.74H227.207C227.433 133.367 227.707 133.06 228.027 132.82C228.36 132.567 228.727 132.38 229.127 132.26C229.527 132.14 229.94 132.08 230.367 132.08C231.193 132.08 231.88 132.227 232.427 132.52C232.987 132.813 233.393 133.267 233.647 133.88H233.747C234.107 133.267 234.593 132.813 235.207 132.52C235.833 132.227 236.493 132.08 237.187 132.08ZM253.278 132.28V143H251.838L251.578 141.58H251.498C251.271 141.953 250.978 142.26 250.618 142.5C250.258 142.74 249.865 142.913 249.438 143.02C249.011 143.14 248.565 143.2 248.098 143.2C247.245 143.2 246.525 143.067 245.938 142.8C245.365 142.52 244.931 142.093 244.638 141.52C244.345 140.947 244.198 140.207 244.198 139.3V132.28H245.978V139.18C245.978 140.033 246.171 140.673 246.558 141.1C246.945 141.527 247.545 141.74 248.358 141.74C249.158 141.74 249.785 141.593 250.238 141.3C250.705 140.993 251.031 140.553 251.218 139.98C251.418 139.393 251.518 138.687 251.518 137.86V132.28H253.278ZM261.021 132.08C261.941 132.08 262.728 132.28 263.381 132.68C264.048 133.08 264.555 133.647 264.901 134.38C265.261 135.1 265.441 135.947 265.441 136.92V137.98H258.101C258.128 139.193 258.435 140.12 259.021 140.76C259.621 141.387 260.455 141.7 261.521 141.7C262.201 141.7 262.801 141.64 263.321 141.52C263.855 141.387 264.401 141.2 264.961 140.96V142.5C264.415 142.74 263.875 142.913 263.341 143.02C262.808 143.14 262.175 143.2 261.441 143.2C260.428 143.2 259.528 142.993 258.741 142.58C257.968 142.167 257.361 141.553 256.921 140.74C256.495 139.913 256.281 138.907 256.281 137.72C256.281 136.547 256.475 135.54 256.861 134.7C257.261 133.86 257.815 133.213 258.521 132.76C259.241 132.307 260.075 132.08 261.021 132.08ZM261.001 133.52C260.161 133.52 259.495 133.793 259.001 134.34C258.521 134.873 258.235 135.62 258.141 136.58H263.601C263.601 135.967 263.508 135.433 263.321 134.98C263.135 134.527 262.848 134.173 262.461 133.92C262.088 133.653 261.601 133.52 261.001 133.52ZM270.13 143H268.37V127.8H270.13V143ZM286.013 143L281.313 130.48H281.233C281.26 130.747 281.28 131.087 281.293 131.5C281.32 131.913 281.34 132.367 281.353 132.86C281.367 133.34 281.373 133.833 281.373 134.34V143H279.713V128.72H282.373L286.773 140.42H286.853L291.333 128.72H293.973V143H292.193V134.22C292.193 133.753 292.2 133.293 292.213 132.84C292.227 132.373 292.247 131.94 292.273 131.54C292.3 131.127 292.32 130.78 292.333 130.5H292.253L287.493 143H286.013ZM301.878 132.1C303.185 132.1 304.151 132.387 304.778 132.96C305.405 133.533 305.718 134.447 305.718 135.7V143H304.438L304.098 141.48H304.018C303.711 141.867 303.391 142.193 303.058 142.46C302.738 142.713 302.365 142.9 301.938 143.02C301.525 143.14 301.018 143.2 300.418 143.2C299.778 143.2 299.198 143.087 298.678 142.86C298.171 142.633 297.771 142.287 297.478 141.82C297.185 141.34 297.038 140.74 297.038 140.02C297.038 138.953 297.458 138.133 298.298 137.56C299.138 136.973 300.431 136.653 302.178 136.6L303.998 136.54V135.9C303.998 135.007 303.805 134.387 303.418 134.04C303.031 133.693 302.485 133.52 301.778 133.52C301.218 133.52 300.685 133.607 300.178 133.78C299.671 133.94 299.198 134.127 298.758 134.34L298.218 133.02C298.685 132.767 299.238 132.553 299.878 132.38C300.518 132.193 301.185 132.1 301.878 132.1ZM302.398 137.82C301.065 137.873 300.138 138.087 299.618 138.46C299.111 138.833 298.858 139.36 298.858 140.04C298.858 140.64 299.038 141.08 299.398 141.36C299.771 141.64 300.245 141.78 300.818 141.78C301.725 141.78 302.478 141.533 303.078 141.04C303.678 140.533 303.978 139.76 303.978 138.72V137.76L302.398 137.82ZM310.989 132.26C310.989 132.513 310.976 132.773 310.949 133.04C310.936 133.307 310.916 133.547 310.889 133.76H311.009C311.236 133.387 311.522 133.08 311.869 132.84C312.216 132.6 312.602 132.42 313.029 132.3C313.456 132.167 313.896 132.1 314.349 132.1C315.216 132.1 315.936 132.24 316.509 132.52C317.096 132.787 317.536 133.207 317.829 133.78C318.122 134.353 318.269 135.1 318.269 136.02V143H316.529V136.14C316.529 135.273 316.336 134.627 315.949 134.2C315.562 133.773 314.956 133.56 314.129 133.56C313.329 133.56 312.702 133.713 312.249 134.02C311.796 134.313 311.469 134.753 311.269 135.34C311.082 135.913 310.989 136.62 310.989 137.46V143H309.229V127.8H310.989V132.26ZM328.772 140.04C328.772 140.733 328.599 141.313 328.252 141.78C327.906 142.247 327.412 142.6 326.772 142.84C326.132 143.08 325.372 143.2 324.492 143.2C323.746 143.2 323.099 143.14 322.552 143.02C322.019 142.9 321.546 142.733 321.132 142.52V140.92C321.559 141.133 322.072 141.333 322.672 141.52C323.286 141.693 323.906 141.78 324.532 141.78C325.426 141.78 326.072 141.64 326.472 141.36C326.872 141.067 327.072 140.68 327.072 140.2C327.072 139.933 326.999 139.693 326.852 139.48C326.706 139.267 326.439 139.053 326.052 138.84C325.679 138.627 325.139 138.387 324.432 138.12C323.739 137.853 323.146 137.587 322.652 137.32C322.159 137.053 321.779 136.733 321.512 136.36C321.246 135.987 321.112 135.507 321.112 134.92C321.112 134.013 321.479 133.313 322.212 132.82C322.959 132.327 323.932 132.08 325.132 132.08C325.786 132.08 326.392 132.147 326.952 132.28C327.526 132.4 328.059 132.573 328.552 132.8L327.952 134.2C327.659 134.067 327.346 133.953 327.012 133.86C326.692 133.753 326.366 133.673 326.032 133.62C325.699 133.553 325.359 133.52 325.012 133.52C324.292 133.52 323.739 133.64 323.352 133.88C322.979 134.107 322.792 134.42 322.792 134.82C322.792 135.113 322.879 135.367 323.052 135.58C323.226 135.78 323.512 135.98 323.912 136.18C324.326 136.367 324.872 136.593 325.552 136.86C326.232 137.113 326.812 137.373 327.292 137.64C327.772 137.907 328.139 138.233 328.392 138.62C328.646 138.993 328.772 139.467 328.772 140.04ZM335.702 132.08C336.622 132.08 337.409 132.28 338.062 132.68C338.729 133.08 339.236 133.647 339.582 134.38C339.942 135.1 340.122 135.947 340.122 136.92V137.98H332.782C332.809 139.193 333.116 140.12 333.702 140.76C334.302 141.387 335.136 141.7 336.202 141.7C336.882 141.7 337.482 141.64 338.002 141.52C338.536 141.387 339.082 141.2 339.642 140.96V142.5C339.096 142.74 338.556 142.913 338.022 143.02C337.489 143.14 336.856 143.2 336.122 143.2C335.109 143.2 334.209 142.993 333.422 142.58C332.649 142.167 332.042 141.553 331.602 140.74C331.176 139.913 330.962 138.907 330.962 137.72C330.962 136.547 331.156 135.54 331.542 134.7C331.942 133.86 332.496 133.213 333.202 132.76C333.922 132.307 334.756 132.08 335.702 132.08ZM335.682 133.52C334.842 133.52 334.176 133.793 333.682 134.34C333.202 134.873 332.916 135.62 332.822 136.58H338.282C338.282 135.967 338.189 135.433 338.002 134.98C337.816 134.527 337.529 134.173 337.142 133.92C336.769 133.653 336.282 133.52 335.682 133.52ZM348.052 132.08C348.252 132.08 348.465 132.093 348.692 132.12C348.932 132.133 349.138 132.16 349.312 132.2L349.092 133.82C348.918 133.78 348.725 133.747 348.512 133.72C348.312 133.693 348.118 133.68 347.932 133.68C347.518 133.68 347.125 133.767 346.752 133.94C346.378 134.113 346.045 134.36 345.752 134.68C345.458 134.987 345.225 135.36 345.052 135.8C344.892 136.24 344.812 136.733 344.812 137.28V143H343.052V132.28H344.492L344.692 134.24H344.772C344.998 133.84 345.272 133.48 345.592 133.16C345.912 132.827 346.278 132.567 346.692 132.38C347.105 132.18 347.558 132.08 348.052 132.08ZM350.253 147.8C349.92 147.8 349.627 147.773 349.373 147.72C349.12 147.68 348.9 147.627 348.713 147.56V146.14C348.913 146.193 349.12 146.24 349.333 146.28C349.547 146.32 349.78 146.34 350.033 146.34C350.46 146.34 350.813 146.22 351.093 145.98C351.373 145.753 351.513 145.313 351.513 144.66V132.28H353.273V144.6C353.273 145.267 353.167 145.84 352.953 146.32C352.74 146.8 352.413 147.167 351.973 147.42C351.533 147.673 350.96 147.8 350.253 147.8ZM351.373 129.38C351.373 128.993 351.473 128.713 351.673 128.54C351.873 128.353 352.12 128.26 352.413 128.26C352.68 128.26 352.913 128.353 353.113 128.54C353.327 128.713 353.433 128.993 353.433 129.38C353.433 129.753 353.327 130.033 353.113 130.22C352.913 130.407 352.68 130.5 352.413 130.5C352.12 130.5 351.873 130.407 351.673 130.22C351.473 130.033 351.373 129.753 351.373 129.38ZM358.63 132.28V143H356.87V132.28H358.63ZM357.77 128.26C358.036 128.26 358.27 128.353 358.47 128.54C358.683 128.713 358.79 128.993 358.79 129.38C358.79 129.753 358.683 130.033 358.47 130.22C358.27 130.407 358.036 130.5 357.77 130.5C357.476 130.5 357.23 130.407 357.03 130.22C356.83 130.033 356.73 129.753 356.73 129.38C356.73 128.993 356.83 128.713 357.03 128.54C357.23 128.353 357.476 128.26 357.77 128.26ZM366.286 132.1C367.592 132.1 368.559 132.387 369.186 132.96C369.812 133.533 370.126 134.447 370.126 135.7V143H368.846L368.506 141.48H368.426C368.119 141.867 367.799 142.193 367.466 142.46C367.146 142.713 366.772 142.9 366.346 143.02C365.932 143.14 365.426 143.2 364.826 143.2C364.186 143.2 363.606 143.087 363.086 142.86C362.579 142.633 362.179 142.287 361.886 141.82C361.592 141.34 361.446 140.74 361.446 140.02C361.446 138.953 361.866 138.133 362.706 137.56C363.546 136.973 364.839 136.653 366.586 136.6L368.406 136.54V135.9C368.406 135.007 368.212 134.387 367.826 134.04C367.439 133.693 366.892 133.52 366.186 133.52C365.626 133.52 365.092 133.607 364.586 133.78C364.079 133.94 363.606 134.127 363.166 134.34L362.626 133.02C363.092 132.767 363.646 132.553 364.286 132.38C364.926 132.193 365.592 132.1 366.286 132.1ZM366.806 137.82C365.472 137.873 364.546 138.087 364.026 138.46C363.519 138.833 363.266 139.36 363.266 140.04C363.266 140.64 363.446 141.08 363.806 141.36C364.179 141.64 364.652 141.78 365.226 141.78C366.132 141.78 366.886 141.533 367.486 141.04C368.086 140.533 368.386 139.76 368.386 138.72V137.76L366.806 137.82ZM378.797 132.08C380.077 132.08 381.043 132.393 381.697 133.02C382.35 133.633 382.677 134.633 382.677 136.02V143H380.937V136.14C380.937 135.273 380.743 134.627 380.357 134.2C379.97 133.773 379.363 133.56 378.537 133.56C377.35 133.56 376.53 133.893 376.077 134.56C375.623 135.227 375.397 136.187 375.397 137.44V143H373.637V132.28H375.057L375.317 133.74H375.417C375.657 133.367 375.95 133.06 376.297 132.82C376.657 132.567 377.05 132.38 377.477 132.26C377.903 132.14 378.343 132.08 378.797 132.08Z" fill="white"/>
<path d="M168.904 180.904C168.584 180.029 168.189 179.187 167.72 178.376C167.25 177.544 166.76 176.733 166.248 175.944C165.736 175.155 165.213 174.376 164.68 173.608C164.146 172.819 163.656 172.029 163.208 171.24V171.208H163.24H163.368C164.392 171.144 165.234 170.856 165.896 170.344C166.578 169.832 167.122 169.192 167.528 168.424C168.189 167.315 168.498 166.173 168.456 165C168.434 163.805 168.146 162.717 167.592 161.736C167.037 160.755 166.258 159.933 165.256 159.272C164.253 158.611 163.122 158.248 161.864 158.184C160.306 158.013 158.813 158.003 157.384 158.152C155.954 158.301 154.642 158.461 153.448 158.632C153.49 158.909 153.522 159.443 153.544 160.232C153.586 161 153.618 161.939 153.64 163.048C153.661 164.136 153.682 165.341 153.704 166.664C153.746 167.965 153.768 169.288 153.768 170.632C153.789 171.955 153.8 173.245 153.8 174.504C153.8 175.741 153.8 176.84 153.8 177.8C153.8 178.76 153.789 179.539 153.768 180.136C153.746 180.712 153.714 181 153.672 181C153.778 180.979 154.056 180.979 154.504 181C154.973 181.021 155.496 181.021 156.072 181C156.648 181 157.224 180.979 157.8 180.936C158.397 180.893 158.877 180.797 159.24 180.648C159.218 180.243 159.186 179.699 159.144 179.016C159.101 178.333 159.058 177.619 159.016 176.872C158.994 176.104 158.984 175.368 158.984 174.664C158.984 173.939 159.016 173.331 159.08 172.84L159.144 172.936C159.592 173.491 160.04 174.131 160.488 174.856C160.936 175.581 161.352 176.317 161.736 177.064C162.12 177.811 162.472 178.525 162.792 179.208C163.112 179.891 163.378 180.477 163.592 180.968H163.624C164.584 181.032 165.522 181.043 166.44 181C167.357 180.936 168.189 180.904 168.936 180.904H168.904ZM158.12 163.112C158.866 162.813 159.602 162.653 160.328 162.632C161.053 162.589 161.65 162.781 162.12 163.208C162.418 163.443 162.632 163.763 162.76 164.168C162.888 164.552 162.93 164.947 162.888 165.352C162.845 165.736 162.706 166.099 162.472 166.44C162.258 166.76 161.949 166.963 161.544 167.048C161.032 167.133 160.488 167.165 159.912 167.144C159.336 167.123 158.802 167.091 158.312 167.048H158.28C158.237 166.813 158.205 166.525 158.184 166.184C158.184 165.843 158.184 165.491 158.184 165.128C158.184 164.765 158.173 164.413 158.152 164.072C158.152 163.709 158.141 163.389 158.12 163.112ZM170.527 166.408C170.463 166.643 170.367 166.963 170.239 167.368C170.111 167.752 170.036 168.061 170.015 168.296C169.951 168.701 169.908 169.096 169.887 169.48C169.865 169.843 169.855 170.216 169.855 170.6C169.919 171.304 169.929 172.083 169.887 172.936C169.865 173.789 169.876 174.643 169.919 175.496C169.961 176.328 170.089 177.128 170.303 177.896C170.516 178.664 170.911 179.304 171.487 179.816C172.233 180.563 173.151 181.032 174.239 181.224C174.836 181.224 175.497 181.245 176.223 181.288C176.948 181.352 177.652 181.352 178.335 181.288C179.017 181.245 179.647 181.117 180.223 180.904C180.82 180.691 181.3 180.328 181.663 179.816C181.876 179.603 182.036 179.208 182.143 178.632C182.271 178.056 182.367 177.405 182.431 176.68C182.516 175.955 182.569 175.197 182.591 174.408C182.633 173.619 182.665 172.915 182.687 172.296C182.665 171.592 182.644 170.909 182.623 170.248C182.601 169.565 182.548 168.947 182.463 168.392C182.377 167.816 182.249 167.315 182.079 166.888C181.908 166.461 181.673 166.152 181.375 165.96C180.927 165.533 180.393 165.213 179.775 165C179.156 164.765 178.505 164.627 177.823 164.584C177.375 164.541 176.948 164.541 176.543 164.584C176.159 164.605 175.753 164.595 175.327 164.552C174.815 164.552 174.303 164.584 173.791 164.648C173.3 164.712 172.831 164.829 172.383 165C171.956 165.149 171.572 165.341 171.231 165.576C170.911 165.811 170.676 166.088 170.527 166.408ZM174.527 170.184C174.804 169.843 175.167 169.608 175.615 169.48C176.447 169.288 177.119 169.363 177.631 169.704C178.143 170.045 178.452 170.589 178.559 171.336C178.687 171.955 178.719 172.616 178.655 173.32C178.612 174.003 178.548 174.685 178.463 175.368C178.335 175.901 178.089 176.253 177.727 176.424C177.449 176.573 177.097 176.68 176.671 176.744C176.244 176.787 175.828 176.765 175.423 176.68C175.039 176.573 174.708 176.392 174.431 176.136C174.153 175.859 174.025 175.475 174.047 174.984C174.089 174.237 174.111 173.533 174.111 172.872C174.111 172.189 174.153 171.507 174.239 170.824C174.303 170.483 174.399 170.269 174.527 170.184ZM189.094 158.504C189.094 158.483 188.945 158.461 188.646 158.44C188.369 158.397 188.017 158.376 187.59 158.376C187.185 158.355 186.748 158.355 186.278 158.376C185.809 158.376 185.404 158.408 185.062 158.472V160.584C185.062 162.355 185.041 164.125 184.998 165.896C184.956 167.667 184.913 169.416 184.87 171.144C184.849 172.851 184.828 174.536 184.806 176.2C184.806 177.843 184.828 179.432 184.87 180.968C185.532 180.968 186.257 180.979 187.046 181C187.836 181.043 188.55 181.021 189.19 180.936C189.212 180.893 189.222 180.819 189.222 180.712C189.222 180.499 189.222 180.328 189.222 180.2C189.244 180.072 189.254 179.891 189.254 179.656C189.297 179.549 189.34 179.475 189.382 179.432C189.446 179.368 189.51 179.4 189.574 179.528C189.894 180.168 190.321 180.584 190.854 180.776C191.388 180.947 191.953 180.989 192.55 180.904C193.766 180.819 194.726 180.509 195.43 179.976C196.134 179.421 196.657 178.728 196.998 177.896C197.361 177.043 197.596 176.093 197.702 175.048C197.809 174.003 197.884 172.947 197.926 171.88C197.926 171.133 197.873 170.408 197.766 169.704C197.681 169 197.532 168.36 197.318 167.784C197.126 167.187 196.86 166.685 196.518 166.28C196.198 165.853 195.804 165.555 195.334 165.384C194.758 165.171 194.118 165.043 193.414 165C192.732 164.936 192.081 164.936 191.462 165C190.844 165.043 190.321 165.139 189.894 165.288C189.468 165.437 189.233 165.608 189.19 165.8C189.212 164.797 189.222 163.987 189.222 163.368C189.222 162.749 189.222 162.259 189.222 161.896C189.222 161.512 189.212 161.224 189.19 161.032C189.19 160.819 189.18 160.627 189.158 160.456C189.158 160.264 189.148 160.061 189.126 159.848C189.126 159.613 189.116 159.283 189.094 158.856V158.504ZM194.054 170.92C194.161 171.219 194.225 171.528 194.246 171.848C194.268 172.168 194.278 172.477 194.278 172.776C194.278 173.309 194.214 173.832 194.086 174.344C193.958 174.835 193.766 175.283 193.51 175.688C193.254 176.072 192.945 176.381 192.582 176.616C192.22 176.851 191.814 176.968 191.366 176.968C190.812 176.968 190.385 176.851 190.086 176.616C189.788 176.381 189.553 176.061 189.382 175.656C189.233 175.251 189.137 174.771 189.094 174.216C189.073 173.64 189.062 173.011 189.062 172.328C189.062 171.496 189.073 170.845 189.094 170.376C189.137 169.885 189.222 169.512 189.35 169.256C189.478 169 189.67 168.84 189.926 168.776C190.204 168.691 190.566 168.648 191.014 168.648C191.889 168.648 192.582 168.84 193.094 169.224C193.628 169.608 193.948 170.173 194.054 170.92ZM200.354 166.408C200.29 166.643 200.194 166.963 200.066 167.368C199.938 167.752 199.863 168.061 199.842 168.296C199.778 168.701 199.735 169.096 199.714 169.48C199.693 169.843 199.682 170.216 199.682 170.6C199.746 171.304 199.757 172.083 199.714 172.936C199.693 173.789 199.703 174.643 199.746 175.496C199.789 176.328 199.917 177.128 200.13 177.896C200.343 178.664 200.738 179.304 201.314 179.816C202.061 180.563 202.978 181.032 204.066 181.224C204.663 181.224 205.325 181.245 206.05 181.288C206.775 181.352 207.479 181.352 208.162 181.288C208.845 181.245 209.474 181.117 210.05 180.904C210.647 180.691 211.127 180.328 211.49 179.816C211.703 179.603 211.863 179.208 211.97 178.632C212.098 178.056 212.194 177.405 212.258 176.68C212.343 175.955 212.397 175.197 212.418 174.408C212.461 173.619 212.493 172.915 212.514 172.296C212.493 171.592 212.471 170.909 212.45 170.248C212.429 169.565 212.375 168.947 212.29 168.392C212.205 167.816 212.077 167.315 211.906 166.888C211.735 166.461 211.501 166.152 211.202 165.96C210.754 165.533 210.221 165.213 209.602 165C208.983 164.765 208.333 164.627 207.65 164.584C207.202 164.541 206.775 164.541 206.37 164.584C205.986 164.605 205.581 164.595 205.154 164.552C204.642 164.552 204.13 164.584 203.618 164.648C203.127 164.712 202.658 164.829 202.21 165C201.783 165.149 201.399 165.341 201.058 165.576C200.738 165.811 200.503 166.088 200.354 166.408ZM204.354 170.184C204.631 169.843 204.994 169.608 205.442 169.48C206.274 169.288 206.946 169.363 207.458 169.704C207.97 170.045 208.279 170.589 208.386 171.336C208.514 171.955 208.546 172.616 208.482 173.32C208.439 174.003 208.375 174.685 208.29 175.368C208.162 175.901 207.917 176.253 207.554 176.424C207.277 176.573 206.925 176.68 206.498 176.744C206.071 176.787 205.655 176.765 205.25 176.68C204.866 176.573 204.535 176.392 204.258 176.136C203.981 175.859 203.853 175.475 203.874 174.984C203.917 174.237 203.938 173.533 203.938 172.872C203.938 172.189 203.981 171.507 204.066 170.824C204.13 170.483 204.226 170.269 204.354 170.184ZM220.302 159.112C219.939 159.155 219.576 159.165 219.214 159.144C218.851 159.123 218.488 159.101 218.126 159.08C217.763 159.037 217.411 159.005 217.07 158.984C216.75 158.963 216.451 158.973 216.174 159.016C216.131 159.421 216.099 159.88 216.078 160.392C216.078 160.904 216.078 161.437 216.078 161.992C216.078 162.547 216.088 163.101 216.11 163.656C216.131 164.189 216.142 164.691 216.142 165.16C215.8 165.16 215.438 165.16 215.054 165.16C214.691 165.16 214.296 165.149 213.87 165.128L213.774 169.032C214.222 169.032 214.627 169.032 214.99 169.032C215.374 169.032 215.736 169.021 216.078 169C216.056 170.557 216.067 172.072 216.11 173.544C216.152 174.995 216.312 176.541 216.59 178.184C216.867 178.845 217.315 179.368 217.934 179.752C218.574 180.136 219.299 180.424 220.11 180.616C220.92 180.808 221.784 180.936 222.702 181C223.619 181.043 224.504 181.043 225.358 181C225.464 180.68 225.528 180.328 225.55 179.944C225.592 179.56 225.603 179.176 225.582 178.792C225.56 178.408 225.528 178.035 225.486 177.672C225.443 177.309 225.4 176.979 225.358 176.68C224.995 176.701 224.568 176.701 224.078 176.68C223.608 176.659 223.139 176.605 222.67 176.52C222.2 176.413 221.763 176.275 221.358 176.104C220.952 175.933 220.643 175.699 220.43 175.4C220.408 174.44 220.398 173.416 220.398 172.328C220.398 171.219 220.398 170.088 220.398 168.936H225.358C225.315 168.659 225.304 168.328 225.326 167.944C225.368 167.539 225.4 167.144 225.422 166.76C225.443 166.376 225.443 166.024 225.422 165.704C225.4 165.363 225.315 165.107 225.166 164.936C224.078 165 223.16 165.053 222.414 165.096C221.688 165.139 220.995 165.171 220.334 165.192C220.334 164.872 220.323 164.563 220.302 164.264C220.302 163.965 220.302 163.677 220.302 163.4V159.112Z" fill="#FA5559"/>
<path d="M171.056 0.494787C185.578 0.494787 197.349 13.2401 197.349 28.9618C197.349 44.6835 185.578 57.4287 171.056 57.4287C156.535 57.4287 144.764 44.6837 144.764 28.9618C144.782 13.2478 156.543 0.514164 171.055 0.494908H171.057L171.056 0.494787ZM171.056 48.9732C181.265 48.9732 189.539 40.0136 189.539 28.9618C189.539 17.9101 181.264 8.95052 171.056 8.95052C160.849 8.95052 152.574 17.9101 152.574 28.9618C152.585 40.0087 160.853 48.9603 171.055 48.9732H171.057H171.056ZM209.35 107.818L205.706 88.3139C202.455 70.5074 188.146 57.266 170.981 57.266C153.816 57.266 139.507 70.5074 136.294 88.0705L136.256 88.3139L132.664 107.823L125 106.149L128.592 86.6453C132.599 64.9497 150.05 48.8306 170.978 48.8306C191.907 48.8306 209.358 64.9499 213.318 86.3467L213.364 86.6454L217.009 106.121L209.35 107.818ZM195.943 57.4061H195.916C190.474 57.4061 185.419 55.6072 181.232 52.5287L181.324 52.5921L185.676 45.5739C188.568 47.7013 192.136 48.9704 195.978 48.9704C206.186 48.9704 214.461 40.0109 214.461 28.9589C214.461 17.907 206.185 8.94761 195.978 8.94761C192.136 8.94761 188.568 10.2168 185.611 12.3888L185.676 12.344L181.324 5.32601C185.44 2.29348 190.52 0.483887 195.991 0.483887C210.509 0.483887 222.279 13.2265 222.279 28.9451C222.279 44.6638 210.509 57.4064 195.991 57.4064H195.941H195.943L195.943 57.4061ZM234.341 107.812L230.697 88.2518C227.366 70.5248 213.086 57.3717 195.968 57.3717C191.951 57.3717 188.089 58.0963 184.49 59.4312L184.739 59.3509L182.261 51.3408C186.351 49.8088 191.064 48.9243 195.969 48.9243C216.857 48.9243 234.284 64.9704 238.308 86.2989L238.355 86.6001L242 106.149L234.341 107.812Z" fill="white"/>
</svg>
