<svg width="369" height="185" viewBox="0 0 369 185" fill="none" xmlns="http://www.w3.org/2000/svg">
<path d="M7.429 144H5.359V129.395H0.23V127.578H12.535V129.395H7.429V144ZM17.7925 131.465C19.2951 131.465 20.4068 131.795 21.1275 132.454C21.8481 133.113 22.2085 134.164 22.2085 135.605V144H20.7365L20.3455 142.252H20.2535C19.9008 142.697 19.5328 143.072 19.1495 143.379C18.7815 143.67 18.3521 143.885 17.8615 144.023C17.3861 144.161 16.8035 144.23 16.1135 144.23C15.3775 144.23 14.7105 144.1 14.1125 143.839C13.5298 143.578 13.0698 143.18 12.7325 142.643C12.3951 142.091 12.2265 141.401 12.2265 140.573C12.2265 139.346 12.7095 138.403 13.6755 137.744C14.6415 137.069 16.1288 136.701 18.1375 136.64L20.2305 136.571V135.835C20.2305 134.808 20.0081 134.095 19.5635 133.696C19.1188 133.297 18.4901 133.098 17.6775 133.098C17.0335 133.098 16.4201 133.198 15.8375 133.397C15.2548 133.581 14.7105 133.796 14.2045 134.041L13.5835 132.523C14.1201 132.232 14.7565 131.986 15.4925 131.787C16.2285 131.572 16.9951 131.465 17.7925 131.465ZM18.3905 138.043C16.8571 138.104 15.7915 138.35 15.1935 138.779C14.6108 139.208 14.3195 139.814 14.3195 140.596C14.3195 141.286 14.5265 141.792 14.9405 142.114C15.3698 142.436 15.9141 142.597 16.5735 142.597C17.6161 142.597 18.4825 142.313 19.1725 141.746C19.8625 141.163 20.2075 140.274 20.2075 139.078V137.974L18.3905 138.043ZM30.3631 142.574C30.6697 142.574 30.9841 142.551 31.3061 142.505C31.6281 142.444 31.8887 142.382 32.0881 142.321V143.862C31.8734 143.969 31.5667 144.054 31.1681 144.115C30.7694 144.192 30.3861 144.23 30.0181 144.23C29.3741 144.23 28.7761 144.123 28.2241 143.908C27.6874 143.678 27.2504 143.287 26.9131 142.735C26.5757 142.183 26.4071 141.409 26.4071 140.412V133.236H24.6591V132.27L26.4301 131.465L27.2351 128.843H28.4311V131.672H31.9961V133.236H28.4311V140.366C28.4311 141.117 28.6074 141.677 28.9601 142.045C29.3281 142.398 29.7957 142.574 30.3631 142.574ZM39.5476 131.442C40.6056 131.442 41.5103 131.672 42.2616 132.132C43.0283 132.592 43.6109 133.244 44.0096 134.087C44.4236 134.915 44.6306 135.889 44.6306 137.008V138.227H36.1896C36.2203 139.622 36.5729 140.688 37.2476 141.424C37.9376 142.145 38.8959 142.505 40.1226 142.505C40.9046 142.505 41.5946 142.436 42.1926 142.298C42.8059 142.145 43.4346 141.93 44.0786 141.654V143.425C43.4499 143.701 42.8289 143.9 42.2156 144.023C41.6023 144.161 40.8739 144.23 40.0306 144.23C38.8653 144.23 37.8303 143.992 36.9256 143.517C36.0363 143.042 35.3386 142.336 34.8326 141.401C34.3419 140.45 34.0966 139.293 34.0966 137.928C34.0966 136.579 34.3189 135.421 34.7636 134.455C35.2236 133.489 35.8599 132.745 36.6726 132.224C37.5006 131.703 38.4589 131.442 39.5476 131.442ZM39.5246 133.098C38.5586 133.098 37.7919 133.412 37.2246 134.041C36.6726 134.654 36.3429 135.513 36.2356 136.617H42.5146C42.5146 135.912 42.4073 135.298 42.1926 134.777C41.9779 134.256 41.6483 133.849 41.2036 133.558C40.7743 133.251 40.2146 133.098 39.5246 133.098ZM53.933 131.442C55.405 131.442 56.5167 131.802 57.268 132.523C58.0194 133.228 58.395 134.378 58.395 135.973V144H56.394V136.111C56.394 135.114 56.1717 134.371 55.727 133.88C55.2824 133.389 54.5847 133.144 53.634 133.144C52.2694 133.144 51.3264 133.527 50.805 134.294C50.2837 135.061 50.023 136.165 50.023 137.606V144H47.999V131.672H49.632L49.931 133.351H50.046C50.322 132.922 50.6594 132.569 51.058 132.293C51.472 132.002 51.9244 131.787 52.415 131.649C52.9057 131.511 53.4117 131.442 53.933 131.442ZM66.8168 144.23C65.2835 144.23 64.0568 143.701 63.1368 142.643C62.2168 141.57 61.7568 139.975 61.7568 137.859C61.7568 135.743 62.2168 134.148 63.1368 133.075C64.0721 131.986 65.3065 131.442 66.8398 131.442C67.4838 131.442 68.0435 131.526 68.5188 131.695C68.9941 131.848 69.4081 132.063 69.7608 132.339C70.1135 132.615 70.4125 132.922 70.6578 133.259H70.7958C70.7805 133.06 70.7498 132.768 70.7038 132.385C70.6731 131.986 70.6578 131.672 70.6578 131.442V126.52H72.6818V144H71.0488L70.7498 142.344H70.6578C70.4125 142.697 70.1135 143.019 69.7608 143.31C69.4081 143.586 68.9865 143.808 68.4958 143.977C68.0205 144.146 67.4608 144.23 66.8168 144.23ZM67.1388 142.551C68.4421 142.551 69.3545 142.198 69.8758 141.493C70.4125 140.772 70.6808 139.691 70.6808 138.25V137.882C70.6808 136.349 70.4278 135.176 69.9218 134.363C69.4158 133.535 68.4805 133.121 67.1158 133.121C66.0271 133.121 65.2068 133.558 64.6548 134.432C64.1181 135.291 63.8498 136.448 63.8498 137.905C63.8498 139.377 64.1181 140.519 64.6548 141.332C65.2068 142.145 66.0348 142.551 67.1388 142.551ZM81.4962 131.465C82.9989 131.465 84.1105 131.795 84.8312 132.454C85.5519 133.113 85.9122 134.164 85.9122 135.605V144H84.4402L84.0492 142.252H83.9572C83.6045 142.697 83.2365 143.072 82.8532 143.379C82.4852 143.67 82.0559 143.885 81.5652 144.023C81.0899 144.161 80.5072 144.23 79.8172 144.23C79.0812 144.23 78.4142 144.1 77.8162 143.839C77.2335 143.578 76.7735 143.18 76.4362 142.643C76.0989 142.091 75.9302 141.401 75.9302 140.573C75.9302 139.346 76.4132 138.403 77.3792 137.744C78.3452 137.069 79.8325 136.701 81.8412 136.64L83.9342 136.571V135.835C83.9342 134.808 83.7119 134.095 83.2672 133.696C82.8225 133.297 82.1939 133.098 81.3812 133.098C80.7372 133.098 80.1239 133.198 79.5412 133.397C78.9585 133.581 78.4142 133.796 77.9082 134.041L77.2872 132.523C77.8239 132.232 78.4602 131.986 79.1962 131.787C79.9322 131.572 80.6989 131.465 81.4962 131.465ZM82.0942 138.043C80.5609 138.104 79.4952 138.35 78.8972 138.779C78.3145 139.208 78.0232 139.814 78.0232 140.596C78.0232 141.286 78.2302 141.792 78.6442 142.114C79.0735 142.436 79.6179 142.597 80.2772 142.597C81.3199 142.597 82.1862 142.313 82.8762 141.746C83.5662 141.163 83.9112 140.274 83.9112 139.078V137.974L82.0942 138.043ZM103.873 129.165C102.999 129.165 102.209 129.318 101.504 129.625C100.798 129.916 100.2 130.353 99.7097 130.936C99.219 131.503 98.8433 132.201 98.5827 133.029C98.322 133.842 98.1917 134.762 98.1917 135.789C98.1917 137.138 98.3987 138.311 98.8127 139.308C99.242 140.305 99.8707 141.071 100.699 141.608C101.542 142.145 102.592 142.413 103.85 142.413C104.57 142.413 105.253 142.352 105.897 142.229C106.541 142.106 107.169 141.953 107.783 141.769V143.563C107.169 143.793 106.533 143.962 105.874 144.069C105.23 144.176 104.455 144.23 103.551 144.23C101.879 144.23 100.484 143.885 99.3647 143.195C98.2453 142.505 97.402 141.524 96.8347 140.251C96.2827 138.978 96.0067 137.483 96.0067 135.766C96.0067 134.524 96.1753 133.389 96.5127 132.362C96.8653 131.335 97.3713 130.445 98.0307 129.694C98.7053 128.943 99.5333 128.368 100.515 127.969C101.496 127.555 102.623 127.348 103.896 127.348C104.739 127.348 105.552 127.432 106.334 127.601C107.116 127.77 107.813 128.007 108.427 128.314L107.599 130.062C107.093 129.832 106.525 129.625 105.897 129.441C105.283 129.257 104.609 129.165 103.873 129.165ZM113.345 131.649C113.345 131.94 113.33 132.239 113.299 132.546C113.284 132.853 113.261 133.129 113.23 133.374H113.368C113.629 132.945 113.958 132.592 114.357 132.316C114.756 132.04 115.2 131.833 115.691 131.695C116.182 131.542 116.688 131.465 117.209 131.465C118.206 131.465 119.034 131.626 119.693 131.948C120.368 132.255 120.874 132.738 121.211 133.397C121.548 134.056 121.717 134.915 121.717 135.973V144H119.716V136.111C119.716 135.114 119.494 134.371 119.049 133.88C118.604 133.389 117.907 133.144 116.956 133.144C116.036 133.144 115.315 133.32 114.794 133.673C114.273 134.01 113.897 134.516 113.667 135.191C113.452 135.85 113.345 136.663 113.345 137.629V144H111.321V126.52H113.345V131.649ZM127.793 131.672V144H125.769V131.672H127.793ZM126.804 127.049C127.11 127.049 127.379 127.156 127.609 127.371C127.854 127.57 127.977 127.892 127.977 128.337C127.977 128.766 127.854 129.088 127.609 129.303C127.379 129.518 127.11 129.625 126.804 129.625C126.466 129.625 126.183 129.518 125.953 129.303C125.723 129.088 125.608 128.766 125.608 128.337C125.608 127.892 125.723 127.57 125.953 127.371C126.183 127.156 126.466 127.049 126.804 127.049ZM137.678 131.442C137.908 131.442 138.154 131.457 138.414 131.488C138.69 131.503 138.928 131.534 139.127 131.58L138.874 133.443C138.675 133.397 138.453 133.359 138.207 133.328C137.977 133.297 137.755 133.282 137.54 133.282C137.065 133.282 136.613 133.382 136.183 133.581C135.754 133.78 135.371 134.064 135.033 134.432C134.696 134.785 134.428 135.214 134.228 135.72C134.044 136.226 133.952 136.793 133.952 137.422V144H131.928V131.672H133.584L133.814 133.926H133.906C134.167 133.466 134.481 133.052 134.849 132.684C135.217 132.301 135.639 132.002 136.114 131.787C136.59 131.557 137.111 131.442 137.678 131.442ZM145.971 131.442C147.029 131.442 147.934 131.672 148.685 132.132C149.452 132.592 150.034 133.244 150.433 134.087C150.847 134.915 151.054 135.889 151.054 137.008V138.227H142.613C142.644 139.622 142.996 140.688 143.671 141.424C144.361 142.145 145.319 142.505 146.546 142.505C147.328 142.505 148.018 142.436 148.616 142.298C149.229 142.145 149.858 141.93 150.502 141.654V143.425C149.873 143.701 149.252 143.9 148.639 144.023C148.026 144.161 147.297 144.23 146.454 144.23C145.289 144.23 144.254 143.992 143.349 143.517C142.46 143.042 141.762 142.336 141.256 141.401C140.765 140.45 140.52 139.293 140.52 137.928C140.52 136.579 140.742 135.421 141.187 134.455C141.647 133.489 142.283 132.745 143.096 132.224C143.924 131.703 144.882 131.442 145.971 131.442ZM145.948 133.098C144.982 133.098 144.215 133.412 143.648 134.041C143.096 134.654 142.766 135.513 142.659 136.617H148.938C148.938 135.912 148.831 135.298 148.616 134.777C148.401 134.256 148.072 133.849 147.627 133.558C147.198 133.251 146.638 133.098 145.948 133.098ZM162.156 144H153.14V142.666L159.764 133.236H153.531V131.672H161.995V133.19L155.463 142.436H162.156V144ZM169.901 131.465C171.403 131.465 172.515 131.795 173.236 132.454C173.956 133.113 174.317 134.164 174.317 135.605V144H172.845L172.454 142.252H172.362C172.009 142.697 171.641 143.072 171.258 143.379C170.89 143.67 170.46 143.885 169.97 144.023C169.494 144.161 168.912 144.23 168.222 144.23C167.486 144.23 166.819 144.1 166.221 143.839C165.638 143.578 165.178 143.18 164.841 142.643C164.503 142.091 164.335 141.401 164.335 140.573C164.335 139.346 164.818 138.403 165.784 137.744C166.75 137.069 168.237 136.701 170.246 136.64L172.339 136.571V135.835C172.339 134.808 172.116 134.095 171.672 133.696C171.227 133.297 170.598 133.098 169.786 133.098C169.142 133.098 168.528 133.198 167.946 133.397C167.363 133.581 166.819 133.796 166.313 134.041L165.692 132.523C166.228 132.232 166.865 131.986 167.601 131.787C168.337 131.572 169.103 131.465 169.901 131.465ZM170.499 138.043C168.965 138.104 167.9 138.35 167.302 138.779C166.719 139.208 166.428 139.814 166.428 140.596C166.428 141.286 166.635 141.792 167.049 142.114C167.478 142.436 168.022 142.597 168.682 142.597C169.724 142.597 170.591 142.313 171.281 141.746C171.971 141.163 172.316 140.274 172.316 139.078V137.974L170.499 138.043ZM185.7 140.531C185.7 139.673 186.039 138.796 186.717 137.899C187.415 137.001 188.362 136.204 189.558 135.506C188.86 134.629 188.332 133.811 187.973 133.053C187.614 132.276 187.435 131.598 187.435 131.02C187.435 130.162 187.784 129.424 188.481 128.806C189.199 128.188 190.057 127.879 191.054 127.879C192.011 127.879 192.828 128.228 193.506 128.926C194.204 129.624 194.553 130.471 194.553 131.468C194.553 132.246 194.284 133.013 193.745 133.771C193.207 134.529 192.469 135.177 191.532 135.715L194.792 139.962C194.912 139.484 195.002 139.035 195.061 138.616C195.141 138.178 195.181 137.769 195.181 137.39H196.467C196.467 138.168 196.397 138.876 196.258 139.514C196.138 140.132 195.949 140.66 195.69 141.099L198.322 144.568H196.527L194.732 142.445C194.234 143.163 193.586 143.721 192.788 144.12C192.011 144.538 191.183 144.748 190.306 144.748C189.03 144.748 187.943 144.339 187.046 143.521C186.149 142.684 185.7 141.687 185.7 140.531ZM187.195 140.321C187.195 141.179 187.524 141.916 188.182 142.534C188.84 143.133 189.628 143.432 190.545 143.432C191.203 143.432 191.841 143.242 192.459 142.863C193.097 142.485 193.646 141.966 194.104 141.308L190.276 136.553C189.319 137.111 188.561 137.729 188.003 138.407C187.465 139.065 187.195 139.703 187.195 140.321ZM188.93 131.259C188.93 131.638 189.08 132.126 189.379 132.724C189.678 133.303 190.116 133.961 190.695 134.698C191.413 134.28 191.981 133.781 192.4 133.203C192.818 132.625 193.028 132.046 193.028 131.468C193.028 130.83 192.848 130.282 192.489 129.823C192.13 129.365 191.702 129.135 191.203 129.135C190.585 129.135 190.047 129.345 189.588 129.763C189.149 130.182 188.93 130.681 188.93 131.259ZM207.769 148.37C207.401 148.37 207.079 148.339 206.803 148.278C206.527 148.232 206.281 148.163 206.067 148.071V146.323C206.312 146.384 206.573 146.438 206.849 146.484C207.125 146.53 207.416 146.553 207.723 146.553C208.106 146.553 208.466 146.476 208.804 146.323C209.156 146.17 209.44 145.901 209.655 145.518C209.869 145.135 209.977 144.598 209.977 143.908V127.578H212.047V143.747C212.047 144.805 211.87 145.671 211.518 146.346C211.165 147.036 210.667 147.542 210.023 147.864C209.379 148.201 208.627 148.37 207.769 148.37ZM221.004 131.465C222.506 131.465 223.618 131.795 224.339 132.454C225.059 133.113 225.42 134.164 225.42 135.605V144H223.948L223.557 142.252H223.465C223.112 142.697 222.744 143.072 222.361 143.379C221.993 143.67 221.563 143.885 221.073 144.023C220.597 144.161 220.015 144.23 219.325 144.23C218.589 144.23 217.922 144.1 217.324 143.839C216.741 143.578 216.281 143.18 215.944 142.643C215.606 142.091 215.438 141.401 215.438 140.573C215.438 139.346 215.921 138.403 216.887 137.744C217.853 137.069 219.34 136.701 221.349 136.64L223.442 136.571V135.835C223.442 134.808 223.219 134.095 222.775 133.696C222.33 133.297 221.701 133.098 220.889 133.098C220.245 133.098 219.631 133.198 219.049 133.397C218.466 133.581 217.922 133.796 217.416 134.041L216.795 132.523C217.331 132.232 217.968 131.986 218.704 131.787C219.44 131.572 220.206 131.465 221.004 131.465ZM221.602 138.043C220.068 138.104 219.003 138.35 218.405 138.779C217.822 139.208 217.531 139.814 217.531 140.596C217.531 141.286 217.738 141.792 218.152 142.114C218.581 142.436 219.125 142.597 219.785 142.597C220.827 142.597 221.694 142.313 222.384 141.746C223.074 141.163 223.419 140.274 223.419 139.078V137.974L221.602 138.043ZM234.402 144.23C233.314 144.23 232.34 144.008 231.481 143.563C230.638 143.118 229.971 142.428 229.48 141.493C229.005 140.558 228.767 139.362 228.767 137.905C228.767 136.387 229.02 135.153 229.526 134.202C230.032 133.251 230.715 132.554 231.573 132.109C232.447 131.664 233.436 131.442 234.54 131.442C235.169 131.442 235.775 131.511 236.357 131.649C236.94 131.772 237.415 131.925 237.783 132.109L237.162 133.788C236.794 133.65 236.365 133.52 235.874 133.397C235.384 133.274 234.924 133.213 234.494 133.213C233.666 133.213 232.984 133.389 232.447 133.742C231.911 134.095 231.512 134.616 231.251 135.306C230.991 135.996 230.86 136.855 230.86 137.882C230.86 138.863 230.991 139.699 231.251 140.389C231.512 141.079 231.903 141.6 232.424 141.953C232.946 142.306 233.597 142.482 234.379 142.482C235.054 142.482 235.644 142.413 236.15 142.275C236.672 142.137 237.147 141.968 237.576 141.769V143.563C237.162 143.778 236.702 143.939 236.196 144.046C235.706 144.169 235.108 144.23 234.402 144.23ZM251.456 137.813C251.456 138.84 251.318 139.753 251.042 140.55C250.781 141.332 250.398 141.999 249.892 142.551C249.401 143.103 248.796 143.525 248.075 143.816C247.37 144.092 246.58 144.23 245.706 144.23C244.893 144.23 244.142 144.092 243.452 143.816C242.762 143.525 242.164 143.103 241.658 142.551C241.152 141.999 240.753 141.332 240.462 140.55C240.186 139.753 240.048 138.84 240.048 137.813C240.048 136.448 240.278 135.298 240.738 134.363C241.198 133.412 241.857 132.692 242.716 132.201C243.575 131.695 244.594 131.442 245.775 131.442C246.894 131.442 247.876 131.695 248.719 132.201C249.578 132.692 250.245 133.412 250.72 134.363C251.211 135.298 251.456 136.448 251.456 137.813ZM242.141 137.813C242.141 138.779 242.264 139.622 242.509 140.343C242.77 141.048 243.168 141.593 243.705 141.976C244.242 142.359 244.924 142.551 245.752 142.551C246.58 142.551 247.262 142.359 247.799 141.976C248.336 141.593 248.727 141.048 248.972 140.343C249.233 139.622 249.363 138.779 249.363 137.813C249.363 136.832 249.233 135.996 248.972 135.306C248.711 134.616 248.313 134.087 247.776 133.719C247.255 133.336 246.572 133.144 245.729 133.144C244.472 133.144 243.559 133.558 242.992 134.386C242.425 135.214 242.141 136.356 242.141 137.813ZM256.918 130.775C256.918 131.296 256.903 131.787 256.872 132.247C256.857 132.692 256.834 133.044 256.803 133.305H256.918C257.271 132.784 257.754 132.347 258.367 131.994C258.98 131.641 259.77 131.465 260.736 131.465C262.269 131.465 263.496 132.002 264.416 133.075C265.351 134.133 265.819 135.72 265.819 137.836C265.819 139.247 265.604 140.427 265.175 141.378C264.761 142.329 264.171 143.042 263.404 143.517C262.637 143.992 261.748 144.23 260.736 144.23C259.77 144.23 258.98 144.054 258.367 143.701C257.754 143.348 257.271 142.927 256.918 142.436H256.757L256.343 144H254.894V126.52H256.918V130.775ZM260.391 133.144C259.517 133.144 258.827 133.313 258.321 133.65C257.815 133.972 257.455 134.478 257.24 135.168C257.025 135.843 256.918 136.709 256.918 137.767V137.859C256.918 139.377 257.163 140.542 257.654 141.355C258.16 142.152 259.088 142.551 260.437 142.551C261.541 142.551 262.361 142.145 262.898 141.332C263.45 140.519 263.726 139.346 263.726 137.813C263.726 136.264 263.45 135.099 262.898 134.317C262.361 133.535 261.526 133.144 260.391 133.144ZM280.69 127.578C282.055 127.578 283.174 127.754 284.048 128.107C284.938 128.444 285.597 128.958 286.026 129.648C286.456 130.338 286.67 131.204 286.67 132.247C286.67 133.121 286.509 133.849 286.187 134.432C285.865 135.015 285.451 135.482 284.945 135.835C284.455 136.172 283.933 136.441 283.381 136.64L287.889 144H285.474L281.495 137.215H278.229V144H276.159V127.578H280.69ZM280.575 129.372H278.229V135.467H280.69C281.58 135.467 282.308 135.352 282.875 135.122C283.443 134.877 283.857 134.524 284.117 134.064C284.393 133.604 284.531 133.029 284.531 132.339C284.531 131.618 284.386 131.043 284.094 130.614C283.818 130.185 283.389 129.87 282.806 129.671C282.224 129.472 281.48 129.372 280.575 129.372ZM295.09 131.465C296.592 131.465 297.704 131.795 298.425 132.454C299.145 133.113 299.506 134.164 299.506 135.605V144H298.034L297.643 142.252H297.551C297.198 142.697 296.83 143.072 296.447 143.379C296.079 143.67 295.649 143.885 295.159 144.023C294.683 144.161 294.101 144.23 293.411 144.23C292.675 144.23 292.008 144.1 291.41 143.839C290.827 143.578 290.367 143.18 290.03 142.643C289.692 142.091 289.524 141.401 289.524 140.573C289.524 139.346 290.007 138.403 290.973 137.744C291.939 137.069 293.426 136.701 295.435 136.64L297.528 136.571V135.835C297.528 134.808 297.305 134.095 296.861 133.696C296.416 133.297 295.787 133.098 294.975 133.098C294.331 133.098 293.717 133.198 293.135 133.397C292.552 133.581 292.008 133.796 291.502 134.041L290.881 132.523C291.417 132.232 292.054 131.986 292.79 131.787C293.526 131.572 294.292 131.465 295.09 131.465ZM295.688 138.043C294.154 138.104 293.089 138.35 292.491 138.779C291.908 139.208 291.617 139.814 291.617 140.596C291.617 141.286 291.824 141.792 292.238 142.114C292.667 142.436 293.211 142.597 293.871 142.597C294.913 142.597 295.78 142.313 296.47 141.746C297.16 141.163 297.505 140.274 297.505 139.078V137.974L295.688 138.043ZM317.067 131.442C318.463 131.442 319.505 131.802 320.195 132.523C320.885 133.228 321.23 134.378 321.23 135.973V144H319.229V136.065C319.229 135.099 319.022 134.371 318.608 133.88C318.21 133.389 317.581 133.144 316.722 133.144C315.526 133.144 314.668 133.489 314.146 134.179C313.64 134.869 313.387 135.873 313.387 137.192V144H311.386V136.065C311.386 135.421 311.294 134.884 311.11 134.455C310.926 134.01 310.65 133.681 310.282 133.466C309.914 133.251 309.439 133.144 308.856 133.144C308.028 133.144 307.377 133.32 306.901 133.673C306.426 134.01 306.081 134.509 305.866 135.168C305.667 135.827 305.567 136.64 305.567 137.606V144H303.543V131.672H305.176L305.475 133.351H305.59C305.851 132.922 306.165 132.569 306.533 132.293C306.917 132.002 307.338 131.787 307.798 131.649C308.258 131.511 308.734 131.442 309.224 131.442C310.175 131.442 310.965 131.611 311.593 131.948C312.237 132.285 312.705 132.807 312.996 133.512H313.111C313.525 132.807 314.085 132.285 314.79 131.948C315.511 131.611 316.27 131.442 317.067 131.442ZM333.296 140.596C333.296 141.393 333.096 142.06 332.698 142.597C332.299 143.134 331.732 143.54 330.996 143.816C330.26 144.092 329.386 144.23 328.374 144.23C327.515 144.23 326.771 144.161 326.143 144.023C325.529 143.885 324.985 143.693 324.51 143.448V141.608C325 141.853 325.591 142.083 326.281 142.298C326.986 142.497 327.699 142.597 328.42 142.597C329.447 142.597 330.191 142.436 330.651 142.114C331.111 141.777 331.341 141.332 331.341 140.78C331.341 140.473 331.256 140.197 331.088 139.952C330.919 139.707 330.612 139.461 330.168 139.216C329.738 138.971 329.117 138.695 328.305 138.388C327.507 138.081 326.825 137.775 326.258 137.468C325.69 137.161 325.253 136.793 324.947 136.364C324.64 135.935 324.487 135.383 324.487 134.708C324.487 133.665 324.908 132.86 325.752 132.293C326.61 131.726 327.73 131.442 329.11 131.442C329.861 131.442 330.559 131.519 331.203 131.672C331.862 131.81 332.475 132.009 333.043 132.27L332.353 133.88C332.015 133.727 331.655 133.596 331.272 133.489C330.904 133.366 330.528 133.274 330.145 133.213C329.761 133.136 329.37 133.098 328.972 133.098C328.144 133.098 327.507 133.236 327.063 133.512C326.633 133.773 326.419 134.133 326.419 134.593C326.419 134.93 326.518 135.222 326.718 135.467C326.917 135.697 327.247 135.927 327.707 136.157C328.182 136.372 328.811 136.632 329.593 136.939C330.375 137.23 331.042 137.529 331.594 137.836C332.146 138.143 332.567 138.518 332.859 138.963C333.15 139.392 333.296 139.937 333.296 140.596ZM341.265 131.442C342.323 131.442 343.228 131.672 343.979 132.132C344.746 132.592 345.329 133.244 345.727 134.087C346.141 134.915 346.348 135.889 346.348 137.008V138.227H337.907C337.938 139.622 338.291 140.688 338.965 141.424C339.655 142.145 340.614 142.505 341.84 142.505C342.622 142.505 343.312 142.436 343.91 142.298C344.524 142.145 345.152 141.93 345.796 141.654V143.425C345.168 143.701 344.547 143.9 343.933 144.023C343.32 144.161 342.592 144.23 341.748 144.23C340.583 144.23 339.548 143.992 338.643 143.517C337.754 143.042 337.056 142.336 336.55 141.401C336.06 140.45 335.814 139.293 335.814 137.928C335.814 136.579 336.037 135.421 336.481 134.455C336.941 133.489 337.578 132.745 338.39 132.224C339.218 131.703 340.177 131.442 341.265 131.442ZM341.242 133.098C340.276 133.098 339.51 133.412 338.942 134.041C338.39 134.654 338.061 135.513 337.953 136.617H344.232C344.232 135.912 344.125 135.298 343.91 134.777C343.696 134.256 343.366 133.849 342.921 133.558C342.492 133.251 341.932 133.098 341.242 133.098ZM347.336 131.672H349.498L352.166 138.687C352.319 139.101 352.457 139.5 352.58 139.883C352.718 140.266 352.84 140.642 352.948 141.01C353.055 141.363 353.139 141.708 353.201 142.045H353.293C353.385 141.662 353.53 141.163 353.73 140.55C353.929 139.921 354.136 139.293 354.351 138.664L356.858 131.672H359.043L353.73 145.702C353.438 146.469 353.093 147.136 352.695 147.703C352.311 148.286 351.836 148.73 351.269 149.037C350.717 149.359 350.042 149.52 349.245 149.52C348.877 149.52 348.555 149.497 348.279 149.451C348.003 149.42 347.765 149.382 347.566 149.336V147.726C347.734 147.757 347.934 147.787 348.164 147.818C348.409 147.849 348.662 147.864 348.923 147.864C349.398 147.864 349.804 147.772 350.142 147.588C350.494 147.419 350.793 147.166 351.039 146.829C351.284 146.507 351.491 146.124 351.66 145.679L352.304 144.046L347.336 131.672Z" fill="white"/>
<path d="M157.642 160.302C156.894 160.234 156.135 160.2 155.364 160.2C154.956 160.2 154.548 160.211 154.14 160.234C153.732 160.257 153.336 160.313 152.95 160.404V160.438C152.86 161.435 152.792 162.569 152.746 163.838C152.724 165.085 152.69 166.365 152.644 167.68C152.622 168.995 152.588 170.287 152.542 171.556C152.497 172.803 152.429 173.913 152.338 174.888C152.202 174.548 152.044 174.027 151.862 173.324C151.704 172.621 151.534 171.907 151.352 171.182C151.194 170.457 151.024 169.811 150.842 169.244C150.684 168.655 150.559 168.326 150.468 168.258C150.446 168.281 150.434 168.303 150.434 168.326C150.434 168.349 150.423 168.383 150.4 168.428C150.151 169.448 149.902 170.457 149.652 171.454C149.426 172.429 149.165 173.426 148.87 174.446C148.621 173.471 148.462 172.372 148.394 171.148C148.326 169.924 148.292 168.677 148.292 167.408C148.292 166.139 148.292 164.881 148.292 163.634C148.292 162.387 148.247 161.265 148.156 160.268C147.748 160.245 147.318 160.223 146.864 160.2C146.411 160.177 145.958 160.166 145.504 160.166C145.119 160.166 144.734 160.189 144.348 160.234C143.986 160.257 143.634 160.291 143.294 160.336V160.37C143.362 164.291 143.657 168.213 144.178 172.134C144.7 176.055 145.232 179.954 145.776 183.83H145.81C146.309 183.898 146.74 183.932 147.102 183.932C147.42 183.932 147.703 183.921 147.952 183.898C148.202 183.853 148.474 183.807 148.768 183.762C148.95 183.467 149.108 183.048 149.244 182.504C149.38 181.96 149.516 181.405 149.652 180.838C149.788 180.249 149.924 179.705 150.06 179.206C150.219 178.685 150.4 178.322 150.604 178.118H150.638C150.842 178.435 151.024 178.866 151.182 179.41C151.341 179.954 151.5 180.521 151.658 181.11C151.817 181.677 151.964 182.221 152.1 182.742C152.259 183.241 152.44 183.626 152.644 183.898H153.052H154.276C154.503 183.898 154.707 183.898 154.888 183.898C155.092 183.898 155.274 183.875 155.432 183.83C155.75 179.886 156.112 175.965 156.52 172.066C156.951 168.167 157.336 164.257 157.676 160.336L157.642 160.302ZM163.596 175.466C163.823 175.511 164.185 175.545 164.684 175.568C165.183 175.591 165.738 175.602 166.35 175.602C166.985 175.602 167.642 175.591 168.322 175.568C169.002 175.545 169.637 175.511 170.226 175.466C170.838 175.421 171.359 175.375 171.79 175.33C172.243 175.285 172.549 175.239 172.708 175.194C172.776 174.242 172.776 173.301 172.708 172.372C172.64 171.443 172.436 170.593 172.096 169.822C171.779 169.051 171.303 168.394 170.668 167.85C170.033 167.306 169.195 166.943 168.152 166.762C167.336 166.558 166.497 166.467 165.636 166.49C164.775 166.513 163.959 166.649 163.188 166.898C162.417 167.125 161.726 167.476 161.114 167.952C160.502 168.405 160.049 168.961 159.754 169.618C159.482 170.366 159.301 171.137 159.21 171.93C159.142 172.701 159.074 173.505 159.006 174.344C158.961 175.273 158.983 176.203 159.074 177.132C159.165 178.061 159.335 178.945 159.584 179.784C159.833 180.6 160.162 181.359 160.57 182.062C160.978 182.742 161.488 183.297 162.1 183.728C162.644 184.045 163.233 184.249 163.868 184.34C164.503 184.34 165.194 184.363 165.942 184.408C166.713 184.453 167.461 184.453 168.186 184.408C168.911 184.363 169.58 184.227 170.192 184C170.804 183.773 171.303 183.388 171.688 182.844C171.847 182.708 171.971 182.47 172.062 182.13C172.175 181.767 172.266 181.348 172.334 180.872C172.402 180.373 172.459 179.841 172.504 179.274C172.549 178.707 172.595 178.129 172.64 177.54C172.391 177.472 172.073 177.438 171.688 177.438C171.303 177.415 170.895 177.415 170.464 177.438C170.056 177.461 169.659 177.483 169.274 177.506C168.889 177.506 168.583 177.495 168.356 177.472C168.401 178.401 168.254 179.104 167.914 179.58C167.597 180.033 167.2 180.305 166.724 180.396C166.248 180.487 165.761 180.407 165.262 180.158C164.763 179.909 164.378 179.523 164.106 179.002C163.857 178.594 163.709 178.175 163.664 177.744C163.641 177.313 163.619 176.758 163.596 176.078V175.466ZM167.71 170.196C168.118 170.4 168.435 170.706 168.662 171.114C168.911 171.522 169.036 171.953 169.036 172.406C169.036 172.587 169.036 172.712 169.036 172.78C169.036 172.825 168.968 172.859 168.832 172.882C168.719 172.882 168.515 172.871 168.22 172.848C167.925 172.825 167.483 172.814 166.894 172.814C166.033 172.814 165.375 172.825 164.922 172.848C164.491 172.848 164.174 172.837 163.97 172.814C163.766 172.769 163.653 172.701 163.63 172.61C163.63 172.497 163.653 172.315 163.698 172.066C163.743 171.771 163.811 171.488 163.902 171.216C164.015 170.944 164.174 170.706 164.378 170.502C164.582 170.298 164.854 170.139 165.194 170.026C165.534 169.913 165.976 169.856 166.52 169.856C166.769 169.856 166.985 169.89 167.166 169.958C167.347 170.003 167.529 170.083 167.71 170.196ZM179.417 160.098C179.417 160.075 179.259 160.053 178.941 160.03C178.647 159.985 178.273 159.962 177.819 159.962C177.389 159.939 176.924 159.939 176.425 159.962C175.927 159.962 175.496 159.996 175.133 160.064V162.308C175.133 164.189 175.111 166.071 175.065 167.952C175.02 169.833 174.975 171.692 174.929 173.528C174.907 175.341 174.884 177.132 174.861 178.9C174.861 180.645 174.884 182.334 174.929 183.966C175.632 183.966 176.403 183.977 177.241 184C178.08 184.045 178.839 184.023 179.519 183.932C179.542 183.887 179.553 183.807 179.553 183.694C179.553 183.467 179.553 183.286 179.553 183.15C179.576 183.014 179.587 182.821 179.587 182.572C179.633 182.459 179.678 182.379 179.723 182.334C179.791 182.266 179.859 182.3 179.927 182.436C180.267 183.116 180.721 183.558 181.287 183.762C181.854 183.943 182.455 183.989 183.089 183.898C184.381 183.807 185.401 183.479 186.149 182.912C186.897 182.323 187.453 181.586 187.815 180.702C188.201 179.795 188.45 178.787 188.563 177.676C188.677 176.565 188.756 175.443 188.801 174.31C188.801 173.517 188.745 172.746 188.631 171.998C188.541 171.25 188.382 170.57 188.155 169.958C187.951 169.323 187.668 168.791 187.305 168.36C186.965 167.907 186.546 167.589 186.047 167.408C185.435 167.181 184.755 167.045 184.007 167C183.282 166.932 182.591 166.932 181.933 167C181.276 167.045 180.721 167.147 180.267 167.306C179.814 167.465 179.565 167.646 179.519 167.85C179.542 166.785 179.553 165.923 179.553 165.266C179.553 164.609 179.553 164.087 179.553 163.702C179.553 163.294 179.542 162.988 179.519 162.784C179.519 162.557 179.508 162.353 179.485 162.172C179.485 161.968 179.474 161.753 179.451 161.526C179.451 161.277 179.44 160.925 179.417 160.472V160.098ZM184.687 173.29C184.801 173.607 184.869 173.936 184.891 174.276C184.914 174.616 184.925 174.945 184.925 175.262C184.925 175.829 184.857 176.384 184.721 176.928C184.585 177.449 184.381 177.925 184.109 178.356C183.837 178.764 183.509 179.093 183.123 179.342C182.738 179.591 182.307 179.716 181.831 179.716C181.242 179.716 180.789 179.591 180.471 179.342C180.154 179.093 179.905 178.753 179.723 178.322C179.565 177.891 179.463 177.381 179.417 176.792C179.395 176.18 179.383 175.511 179.383 174.786C179.383 173.902 179.395 173.211 179.417 172.712C179.463 172.191 179.553 171.794 179.689 171.522C179.825 171.25 180.029 171.08 180.301 171.012C180.596 170.921 180.981 170.876 181.457 170.876C182.387 170.876 183.123 171.08 183.667 171.488C184.234 171.896 184.574 172.497 184.687 173.29ZM204.675 172.236C204.675 171.012 204.448 169.913 203.995 168.938C203.541 167.941 202.782 167.215 201.717 166.762C201.127 166.626 200.481 166.524 199.779 166.456C199.076 166.365 198.373 166.32 197.671 166.32C196.968 166.32 196.299 166.354 195.665 166.422C195.053 166.49 194.531 166.581 194.101 166.694C192.99 166.989 192.129 167.555 191.517 168.394C190.927 169.233 190.61 170.151 190.565 171.148C190.542 172.123 190.814 173.075 191.381 174.004C191.97 174.911 192.899 175.579 194.169 176.01C194.803 176.282 195.449 176.475 196.107 176.588C196.764 176.701 197.353 176.837 197.875 176.996C198.396 177.132 198.815 177.336 199.133 177.608C199.45 177.88 199.575 178.288 199.507 178.832C199.529 179.489 199.325 179.943 198.895 180.192C198.464 180.441 197.988 180.543 197.467 180.498C196.945 180.43 196.447 180.237 195.971 179.92C195.517 179.58 195.279 179.149 195.257 178.628C194.554 178.628 193.727 178.617 192.775 178.594C191.823 178.549 190.973 178.571 190.225 178.662V178.73V178.832C190.225 179.739 190.406 180.555 190.769 181.28C191.154 182.005 191.675 182.617 192.333 183.116C193.013 183.615 193.817 183.989 194.747 184.238C195.676 184.487 196.719 184.589 197.875 184.544C199.189 184.567 200.402 184.34 201.513 183.864C202.623 183.388 203.439 182.595 203.961 181.484C204.391 180.237 204.55 179.195 204.437 178.356C204.323 177.495 204.017 176.656 203.519 175.84C202.997 175.16 202.181 174.673 201.071 174.378C199.96 174.061 198.77 173.811 197.501 173.63C196.979 173.449 196.583 173.177 196.311 172.814C196.039 172.451 195.903 172.089 195.903 171.726C195.903 171.363 196.027 171.035 196.277 170.74C196.549 170.423 196.945 170.219 197.467 170.128C197.761 170.105 198.056 170.151 198.351 170.264C198.668 170.355 198.94 170.502 199.167 170.706C199.416 170.91 199.597 171.148 199.711 171.42C199.847 171.692 199.881 171.964 199.813 172.236C200.583 172.395 201.399 172.463 202.261 172.44C203.145 172.417 203.949 172.349 204.675 172.236ZM210.869 166.898C210.144 166.921 209.521 166.921 208.999 166.898C208.478 166.875 208.07 166.853 207.775 166.83C207.662 166.83 207.492 166.819 207.265 166.796C207.061 166.773 206.914 166.773 206.823 166.796V166.83C206.687 168.167 206.619 169.55 206.619 170.978C206.619 172.383 206.642 173.811 206.687 175.262C206.733 176.713 206.755 178.175 206.755 179.648C206.778 181.121 206.733 182.572 206.619 184C206.778 183.955 207.095 183.943 207.571 183.966C208.047 183.989 208.546 184 209.067 184C209.611 184.023 210.11 184.023 210.563 184C211.017 184 211.3 183.932 211.413 183.796C211.255 181.053 211.209 178.254 211.277 175.398C211.368 172.542 211.425 169.743 211.447 167V166.898H210.869ZM206.687 159.486C206.665 160.529 206.676 161.413 206.721 162.138C206.789 162.841 206.823 163.521 206.823 164.178C207.254 164.155 207.719 164.167 208.217 164.212C208.716 164.235 209.181 164.257 209.611 164.28C210.065 164.28 210.45 164.257 210.767 164.212C211.107 164.167 211.323 164.076 211.413 163.94C211.413 163.6 211.402 163.215 211.379 162.784C211.379 162.331 211.368 161.9 211.345 161.492C211.345 161.061 211.334 160.676 211.311 160.336C211.311 159.973 211.311 159.724 211.311 159.588L206.687 159.486ZM220.186 160.744C219.801 160.789 219.416 160.801 219.03 160.778C218.645 160.755 218.26 160.733 217.874 160.71C217.489 160.665 217.115 160.631 216.752 160.608C216.412 160.585 216.095 160.597 215.8 160.642C215.755 161.073 215.721 161.56 215.698 162.104C215.698 162.648 215.698 163.215 215.698 163.804C215.698 164.393 215.71 164.983 215.732 165.572C215.755 166.139 215.766 166.671 215.766 167.17C215.404 167.17 215.018 167.17 214.61 167.17C214.225 167.17 213.806 167.159 213.352 167.136L213.25 171.284C213.726 171.284 214.157 171.284 214.542 171.284C214.95 171.284 215.336 171.273 215.698 171.25C215.676 172.905 215.687 174.514 215.732 176.078C215.778 177.619 215.948 179.263 216.242 181.008C216.537 181.711 217.013 182.266 217.67 182.674C218.35 183.082 219.121 183.388 219.982 183.592C220.844 183.796 221.762 183.932 222.736 184C223.711 184.045 224.652 184.045 225.558 184C225.672 183.66 225.74 183.286 225.762 182.878C225.808 182.47 225.819 182.062 225.796 181.654C225.774 181.246 225.74 180.849 225.694 180.464C225.649 180.079 225.604 179.727 225.558 179.41C225.173 179.433 224.72 179.433 224.198 179.41C223.7 179.387 223.201 179.331 222.702 179.24C222.204 179.127 221.739 178.979 221.308 178.798C220.878 178.617 220.549 178.367 220.322 178.05C220.3 177.03 220.288 175.942 220.288 174.786C220.288 173.607 220.288 172.406 220.288 171.182H225.558C225.513 170.887 225.502 170.536 225.524 170.128C225.57 169.697 225.604 169.278 225.626 168.87C225.649 168.462 225.649 168.088 225.626 167.748C225.604 167.385 225.513 167.113 225.354 166.932C224.198 167 223.224 167.057 222.43 167.102C221.66 167.147 220.923 167.181 220.22 167.204C220.22 166.864 220.209 166.535 220.186 166.218C220.186 165.901 220.186 165.595 220.186 165.3V160.744ZM231.669 175.466C231.896 175.511 232.258 175.545 232.757 175.568C233.256 175.591 233.811 175.602 234.423 175.602C235.058 175.602 235.715 175.591 236.395 175.568C237.075 175.545 237.71 175.511 238.299 175.466C238.911 175.421 239.432 175.375 239.863 175.33C240.316 175.285 240.622 175.239 240.781 175.194C240.849 174.242 240.849 173.301 240.781 172.372C240.713 171.443 240.509 170.593 240.169 169.822C239.852 169.051 239.376 168.394 238.741 167.85C238.106 167.306 237.268 166.943 236.225 166.762C235.409 166.558 234.57 166.467 233.709 166.49C232.848 166.513 232.032 166.649 231.261 166.898C230.49 167.125 229.799 167.476 229.187 167.952C228.575 168.405 228.122 168.961 227.827 169.618C227.555 170.366 227.374 171.137 227.283 171.93C227.215 172.701 227.147 173.505 227.079 174.344C227.034 175.273 227.056 176.203 227.147 177.132C227.238 178.061 227.408 178.945 227.657 179.784C227.906 180.6 228.235 181.359 228.643 182.062C229.051 182.742 229.561 183.297 230.173 183.728C230.717 184.045 231.306 184.249 231.941 184.34C232.576 184.34 233.267 184.363 234.015 184.408C234.786 184.453 235.534 184.453 236.259 184.408C236.984 184.363 237.653 184.227 238.265 184C238.877 183.773 239.376 183.388 239.761 182.844C239.92 182.708 240.044 182.47 240.135 182.13C240.248 181.767 240.339 181.348 240.407 180.872C240.475 180.373 240.532 179.841 240.577 179.274C240.622 178.707 240.668 178.129 240.713 177.54C240.464 177.472 240.146 177.438 239.761 177.438C239.376 177.415 238.968 177.415 238.537 177.438C238.129 177.461 237.732 177.483 237.347 177.506C236.962 177.506 236.656 177.495 236.429 177.472C236.474 178.401 236.327 179.104 235.987 179.58C235.67 180.033 235.273 180.305 234.797 180.396C234.321 180.487 233.834 180.407 233.335 180.158C232.836 179.909 232.451 179.523 232.179 179.002C231.93 178.594 231.782 178.175 231.737 177.744C231.714 177.313 231.692 176.758 231.669 176.078V175.466ZM235.783 170.196C236.191 170.4 236.508 170.706 236.735 171.114C236.984 171.522 237.109 171.953 237.109 172.406C237.109 172.587 237.109 172.712 237.109 172.78C237.109 172.825 237.041 172.859 236.905 172.882C236.792 172.882 236.588 172.871 236.293 172.848C235.998 172.825 235.556 172.814 234.967 172.814C234.106 172.814 233.448 172.825 232.995 172.848C232.564 172.848 232.247 172.837 232.043 172.814C231.839 172.769 231.726 172.701 231.703 172.61C231.703 172.497 231.726 172.315 231.771 172.066C231.816 171.771 231.884 171.488 231.975 171.216C232.088 170.944 232.247 170.706 232.451 170.502C232.655 170.298 232.927 170.139 233.267 170.026C233.607 169.913 234.049 169.856 234.593 169.856C234.842 169.856 235.058 169.89 235.239 169.958C235.42 170.003 235.602 170.083 235.783 170.196Z" fill="#FA5559"/>
<path d="M166.056 0.603674C180.578 0.603674 192.349 13.349 192.349 29.0707C192.349 44.7924 180.578 57.5376 166.056 57.5376C151.535 57.5376 139.764 44.7926 139.764 29.0707C139.782 13.3567 151.543 0.623051 166.055 0.603795H166.057L166.056 0.603674ZM166.056 49.0821C176.265 49.0821 184.539 40.1225 184.539 29.0707C184.539 18.0189 176.264 9.0594 166.056 9.0594C155.849 9.0594 147.574 18.0189 147.574 29.0707C147.585 40.1176 155.853 49.0692 166.055 49.0821H166.057H166.056ZM204.35 107.927L200.706 88.4228C197.455 70.6163 183.146 57.3749 165.981 57.3749C148.816 57.3749 134.507 70.6163 131.294 88.1794L131.256 88.4228L127.664 107.932L120 106.258L123.592 86.7542C127.599 65.0586 145.05 48.9395 165.978 48.9395C186.907 48.9395 204.358 65.0588 208.318 86.4556L208.364 86.7543L212.009 106.23L204.35 107.927ZM190.943 57.515H190.916C185.474 57.515 180.419 55.7161 176.232 52.6375L176.324 52.701L180.676 45.6828C183.568 47.8102 187.136 49.0793 190.978 49.0793C201.186 49.0793 209.461 40.1197 209.461 29.0678C209.461 18.0159 201.185 9.0565 190.978 9.0565C187.136 9.0565 183.568 10.3257 180.611 12.4976L180.676 12.4528L176.324 5.4349C180.44 2.40236 185.52 0.592773 190.991 0.592773C205.509 0.592773 217.279 13.3353 217.279 29.054C217.279 44.7727 205.509 57.5153 190.991 57.5153H190.941H190.943L190.943 57.515ZM229.341 107.921L225.697 88.3606C222.366 70.6337 208.086 57.4806 190.968 57.4806C186.951 57.4806 183.089 58.2052 179.49 59.5401L179.739 59.4598L177.261 51.4497C181.351 49.9177 186.064 49.0331 190.969 49.0331C211.857 49.0331 229.284 65.0793 233.308 86.4078L233.355 86.709L237 106.258L229.341 107.921Z" fill="white"/>
</svg>
